<svg width="527" height="518" viewBox="0 0 527 518" fill="none" xmlns="http://www.w3.org/2000/svg">
<g clip-path="url(#clip0_87_651)">
<path d="M77.008 330.448C119.538 330.448 154.016 296.015 154.016 253.539C154.016 211.064 119.538 176.631 77.008 176.631C34.4777 176.631 0 211.064 0 253.539C0 296.015 34.4777 330.448 77.008 330.448Z" fill="#F2F2F2"/>
<path d="M77.6961 256.746C94.6559 256.746 108.404 243.015 108.404 226.077C108.404 209.139 94.6559 195.408 77.6961 195.408C60.7364 195.408 46.9878 209.139 46.9878 226.077C46.9878 243.015 60.7364 256.746 77.6961 256.746Z" fill="#2F2E41"/>
<path d="M154.433 77.0448C154.406 92.2558 149.864 107.117 141.379 119.75C132.895 132.382 120.851 142.219 106.769 148.015C92.6873 153.811 77.2009 155.306 62.2681 152.312C47.3353 149.318 33.6268 141.969 22.8762 131.194C12.1255 120.419 4.81556 106.703 1.87068 91.7787C-1.0742 76.8547 0.478274 61.3937 6.33177 47.3509C12.1853 33.3081 22.0769 21.3141 34.7558 12.8857C47.4346 4.45738 62.3313 -0.0268473 77.5621 0.000120928C87.6823 -0.00818741 97.7045 1.98095 107.052 5.85323C116.401 9.72551 124.89 15.4046 132.034 22.5641C139.177 29.7236 144.833 38.2223 148.677 47.572C152.522 56.9216 154.478 66.9377 154.433 77.0448Z" fill="#F2F2F2"/>
<path d="M259.746 330.448C302.276 330.448 336.754 296.015 336.754 253.539C336.754 211.064 302.276 176.631 259.746 176.631C217.215 176.631 182.738 211.064 182.738 253.539C182.738 296.015 217.215 330.448 259.746 330.448Z" fill="#F2F2F2"/>
<path d="M259.522 153.817C302.053 153.817 336.53 119.384 336.53 76.9084C336.53 34.4331 302.053 0 259.522 0C216.992 0 182.514 34.4331 182.514 76.9084C182.514 119.384 216.992 153.817 259.522 153.817Z" fill="#F2F2F2"/>
<path d="M447.209 153.817C489.739 153.817 524.217 119.384 524.217 76.9084C524.217 34.4331 489.739 0 447.209 0C404.678 0 370.201 34.4331 370.201 76.9084C370.201 119.384 404.678 153.817 447.209 153.817Z" fill="#F2F2F2"/>
<path d="M449.992 330.448C492.522 330.448 527 296.015 527 253.539C527 211.064 492.522 176.631 449.992 176.631C407.462 176.631 372.984 211.064 372.984 253.539C372.984 296.015 407.462 330.448 449.992 330.448Z" fill="#F2F2F2"/>
<path d="M154.434 441.091C154.434 456.302 149.917 471.172 141.455 483.819C132.994 496.467 120.967 506.324 106.895 512.145C92.8239 517.966 77.3401 519.489 62.402 516.522C47.4639 513.554 33.7424 506.229 22.9727 495.474C12.2029 484.718 4.86857 471.014 1.8972 456.095C-1.07417 441.176 0.450852 425.713 6.27941 411.659C12.108 397.606 21.9783 385.595 34.6422 377.144C47.3061 368.693 62.1948 364.183 77.4256 364.183C87.551 364.138 97.5851 366.096 106.948 369.945C116.312 373.794 124.819 379.458 131.979 386.608C139.139 393.759 144.809 402.255 148.664 411.606C152.518 420.958 154.479 430.979 154.434 441.091Z" fill="#F2F2F2"/>
<path d="M264.471 518C307.001 518 341.479 483.567 341.479 441.092C341.479 398.616 307.001 364.183 264.471 364.183C221.941 364.183 187.463 398.616 187.463 441.092C187.463 483.567 221.941 518 264.471 518Z" fill="#F2F2F2"/>
<path d="M41.7328 51.8901C44.9171 41.7551 52.1582 32.4597 62.1724 29.0335C72.1873 25.6074 86.8516 30.8265 94.3805 38.3203C108.152 52.0279 111.513 99.1183 102.051 113.999C100.169 113.9 93.6753 113.826 91.7705 113.755L89.076 104.786V113.667C86.0414 113.573 82.983 113.508 79.9009 113.473C69.5673 113.345 59.6858 109.22 52.3337 101.967C44.9817 94.7135 40.7319 84.8958 40.4777 74.5779C40.2312 64.7072 40.478 55.884 41.7328 51.8901Z" fill="#2F2E41"/>
<path d="M76.2832 85.4798C88.404 85.4798 98.2299 75.6666 98.2299 63.5614C98.2299 51.4563 88.404 41.6431 76.2832 41.6431C64.1623 41.6431 54.3364 51.4563 54.3364 63.5614C54.3364 75.6666 64.1623 85.4798 76.2832 85.4798Z" fill="#9E616A"/>
<path d="M57.3428 44.3118L82.6123 31.675C87.7786 34 92.2279 37.663 95.4989 42.2841C98.7699 46.9052 100.743 52.3161 101.215 57.9557L101.845 65.4905L91.2631 62.8003L90.1038 53.1656L88.3068 62.0488L83.4235 60.8079L83.4699 45.8501L78.5835 60.7972L61.1423 56.7953L57.3428 44.3118Z" fill="#2F2E41"/>
<path d="M238.599 224.681C244.604 224.681 249.472 219.819 249.472 213.823C249.472 207.826 244.604 202.964 238.599 202.964C232.595 202.964 227.727 207.826 227.727 213.823C227.727 219.819 232.595 224.681 238.599 224.681Z" fill="#2F2E41"/>
<path d="M255.995 265.942C271.206 265.942 283.538 253.626 283.538 238.434C283.538 223.242 271.206 210.927 255.995 210.927C240.783 210.927 228.452 223.242 228.452 238.434C228.452 253.626 240.783 265.942 255.995 265.942Z" fill="#2F2E41"/>
<path d="M258.274 265.935C270.635 265.935 280.656 255.927 280.656 243.582C280.656 231.237 270.635 221.229 258.274 221.229C245.913 221.229 235.892 231.237 235.892 243.582C235.892 255.927 245.913 265.935 258.274 265.935Z" fill="#9E616A"/>
<path d="M273.474 220.796C269.552 218.409 265.059 217.117 260.466 217.056C255.873 216.996 251.349 218.169 247.365 220.453C243.381 222.737 240.085 226.047 237.821 230.039C235.557 234.03 234.409 238.556 234.495 243.142C245.9 246.002 257.881 248.191 270.044 243.826L272.916 236.806L274.609 243.832C278.313 245.344 282.026 246.623 285.74 243.817C285.891 239.243 284.838 234.71 282.686 230.67C280.533 226.631 277.357 223.226 273.474 220.796Z" fill="#2F2E41"/>
<path d="M228.477 184.347C220.958 180.904 211.525 182.519 205.265 187.918C199.005 193.316 196.029 202.102 197.238 210.273C198.471 218.609 203.545 225.788 208.222 232.801C212.9 239.814 217.469 247.499 217.464 255.925C217.46 261.994 215.047 267.814 210.753 272.109C206.458 276.403 200.634 278.822 194.557 278.834C201.69 281.9 209.134 285.027 216.891 284.664C224.647 284.3 232.778 279.32 234.043 271.668C234.954 266.155 232.246 260.779 229.987 255.667C226.308 247.336 223.648 238.593 222.066 229.627C221.312 225.347 220.821 220.848 222.218 216.733C223.33 213.683 225.395 211.071 228.106 209.282C230.818 207.493 234.033 206.622 237.279 206.797L239.841 204.494C240.982 196.313 235.995 187.789 228.477 184.347Z" fill="#2F2E41"/>
<path d="M415.78 46.826C414.723 52.4972 412.99 58.0215 410.618 63.2811C397.034 91.9814 435.719 82.6266 449.544 82.6266C464.66 82.6266 479.122 90.5647 476.913 55.2929C475.97 40.2264 464.66 27.9592 449.544 27.9592C436.633 27.9592 418.48 33.6906 415.78 46.826Z" fill="#2F2E41"/>
<path d="M447.28 82.6199C459.563 82.6199 469.52 72.6754 469.52 60.4082C469.52 48.141 459.563 38.1965 447.28 38.1965C434.996 38.1965 425.039 48.141 425.039 60.4082C425.039 72.6754 434.996 82.6199 447.28 82.6199Z" fill="#FFB6B6"/>
<path d="M432.176 37.7665C436.073 35.3937 440.537 34.1102 445.101 34.0501C449.665 33.99 454.161 35.1555 458.12 37.4249C462.078 39.6943 465.353 42.9841 467.603 46.9504C469.853 50.9167 470.994 55.4138 470.908 59.9714C459.575 62.813 447.67 64.9876 435.584 60.6511L432.73 53.675L431.047 60.6562C427.367 62.1586 423.677 63.4298 419.987 60.6417C419.836 56.097 420.883 51.5923 423.022 47.578C425.161 43.5638 428.317 40.1806 432.176 37.7665Z" fill="#2F2E41"/>
<path d="M77.7085 260.774C92.8593 260.774 105.142 248.508 105.142 233.377C105.142 218.246 92.8593 205.979 77.7085 205.979C62.5576 205.979 50.2754 218.246 50.2754 233.377C50.2754 248.508 62.5576 260.774 77.7085 260.774Z" fill="#FFB8B8"/>
<path d="M262.775 449.069C275.678 449.069 286.138 438.623 286.138 425.737C286.138 412.851 275.678 402.405 262.775 402.405C249.873 402.405 239.413 412.851 239.413 425.737C239.413 438.623 249.873 449.069 262.775 449.069Z" fill="#9E616A"/>
<path d="M262.661 84.7536C276.529 84.7536 287.772 73.5256 287.772 59.6751C287.772 45.8247 276.529 34.5967 262.661 34.5967C248.792 34.5967 237.55 45.8247 237.55 59.6751C237.55 73.5256 248.792 84.7536 262.661 84.7536Z" fill="#FFB8B8"/>
<path d="M284.77 43.1079C284.77 43.1079 291.308 30.6254 276.924 29.4906C276.924 29.4906 264.662 18.3814 252.163 27.4597C252.163 27.4597 245.346 27.4597 241.618 35.1645C241.618 35.1645 236.256 33.1336 235.077 38.5688C235.077 38.5688 231.154 49.9166 235.077 60.1296C239.001 70.3426 240.304 71.4774 240.304 71.4774C240.304 71.4774 237.551 58.8036 253.244 57.6688C268.937 56.534 283.333 46.7159 284.641 59.1984C285.949 71.681 287.387 66.0421 287.387 66.0421C287.387 66.0421 299.808 48.2144 284.77 43.1079Z" fill="#2F2E41"/>
<path d="M447.866 263.067C461.443 263.067 472.448 252.075 472.448 238.517C472.448 224.958 461.443 213.967 447.866 213.967C434.29 213.967 423.285 224.958 423.285 238.517C423.285 252.075 434.29 263.067 447.866 263.067Z" fill="#FFB6B6"/>
<path d="M108.92 422.689V422.689L108.539 423.375C111.93 415.028 108.846 404.741 102.796 398.447C96.7464 392.153 88.3356 389.275 80.0537 388.134C73.9056 387.286 67.5241 387.311 61.6782 389.56C53.2127 392.817 46.7448 400.356 41.3447 408.2C38.8746 411.787 36.446 415.877 36.692 420.361C36.9205 424.522 39.3936 428.053 41.4189 431.583C43.4444 435.114 45.1358 439.494 43.6822 443.347C42.816 445.643 40.9853 447.296 39.4998 449.175C38.0144 451.053 36.7925 453.592 37.51 455.949C37.8286 456.85 38.3759 457.654 39.0985 458.281C39.8211 458.908 40.6943 459.338 41.6327 459.527C43.4284 459.945 45.2914 459.672 47.1101 459.397L94.3166 452.274C97.5243 451.79 100.567 450.539 103.186 448.626C105.805 446.714 107.922 444.197 109.356 441.291C110.791 438.385 111.5 435.176 111.424 431.937C111.348 428.698 110.489 425.525 108.92 422.689Z" fill="#2F2E41"/>
<path d="M96.589 432.588C98.6308 420.022 90.0861 408.182 77.5039 406.143C64.9216 404.104 53.0665 412.637 51.0247 425.203C48.9829 437.769 57.5276 449.609 70.1098 451.648C82.692 453.687 94.5471 445.154 96.589 432.588Z" fill="#FFB9B9"/>
<path d="M135.25 491.871C121.908 507.032 103.132 516.345 82.9748 517.799C62.8175 519.254 42.8958 512.734 27.5103 499.647L34.1154 481.24C35.6081 477.971 37.9636 475.169 40.9294 473.135C43.8953 471.101 47.3595 469.912 50.9507 469.694L55.1528 469.437L65.1725 460.806C65.1725 460.806 92.1701 459.844 91.7696 459.383L108.123 469.206L108.109 469.139L114.538 469.532C118.129 469.748 121.594 470.937 124.56 472.971C127.526 475.005 129.881 477.808 131.373 481.077L135.25 491.871Z" fill="#6C63FF"/>
<path d="M321.252 491.871C307.911 507.032 289.135 516.345 268.978 517.799C248.82 519.254 228.899 512.734 213.513 499.647L220.118 481.24C221.611 477.971 223.967 475.169 226.932 473.135C229.898 471.101 233.362 469.912 236.954 469.694L241.156 469.437L251.175 460.806C251.175 460.806 278.173 459.844 277.773 459.383L294.126 469.206L294.112 469.139L300.541 469.532C304.132 469.748 307.597 470.937 310.563 472.971C313.529 475.005 315.884 477.808 317.376 481.077L321.252 491.871Z" fill="#6C63FF"/>
<path d="M95.699 407.502C95.1032 404.354 91.8886 402.915 89.1344 402.217C81.1456 400.181 72.8354 399.726 64.6714 400.875C58.7201 401.723 52.6274 403.592 48.3092 408.231C44.8272 412.138 42.8543 417.156 42.7449 422.385C42.5688 425.512 43.2683 428.625 44.7649 431.377C46.3189 434.004 48.9676 435.909 51.7019 435.842L51.9788 436.804C63.5666 435.191 74.3307 427.991 81.11 417.316C79.8376 421.854 77.3056 425.939 73.8065 429.1C81.6298 425.973 88.4303 420.739 93.4503 413.98C94.8212 412.163 96.1521 409.897 95.699 407.502Z" fill="#2F2E41"/>
<path d="M134.57 304.074C121.229 319.235 102.453 328.548 82.2956 330.003C62.1383 331.458 42.2166 324.938 26.8311 311.851L33.4362 293.444C34.9289 290.174 37.2844 287.373 40.2502 285.339C43.2161 283.305 46.6803 282.115 50.2715 281.898L54.4736 281.64L64.4933 273.01C64.4933 273.01 91.4909 272.047 91.0904 271.586L107.444 281.41L107.43 281.342L113.859 281.735C117.45 281.952 120.915 283.141 123.881 285.175C126.847 287.209 129.202 290.011 130.694 293.281L134.57 304.074Z" fill="#6C63FF"/>
<path d="M317.689 304.997C304.347 320.158 285.571 329.471 265.414 330.925C245.257 332.38 225.335 325.86 209.949 312.773L216.554 294.366C218.047 291.097 220.403 288.295 223.368 286.261C226.334 284.227 229.799 283.038 233.39 282.82L237.592 282.563L247.611 273.932C247.611 273.932 274.609 272.97 274.209 272.509L290.562 282.332L290.548 282.264L296.977 282.658C300.568 282.874 304.033 284.063 306.999 286.097C309.965 288.131 312.32 290.934 313.812 294.203L317.689 304.997Z" fill="#6C63FF"/>
<path d="M507.765 304.997C494.424 320.158 475.648 329.471 455.49 330.925C435.333 332.38 415.411 325.86 400.026 312.773L406.631 294.366C408.124 291.097 410.479 288.295 413.445 286.261C416.411 284.227 419.875 283.038 423.466 282.82L427.668 282.563L437.688 273.932C437.688 273.932 464.686 272.97 464.285 272.509L480.639 282.332L480.625 282.264L487.054 282.658C490.645 282.874 494.11 284.063 497.076 286.097C500.042 288.131 502.397 290.934 503.889 294.203L507.765 304.997Z" fill="#6C63FF"/>
<path d="M134.57 127.803C121.229 142.964 102.453 152.277 82.2956 153.732C62.1383 155.187 42.2166 148.667 26.8311 135.58L33.4362 117.173C34.9289 113.904 37.2844 111.102 40.2502 109.068C43.2161 107.034 46.6803 105.844 50.2715 105.627L54.4736 105.369L64.4933 96.7389C64.4933 96.7389 91.4909 95.7762 91.0904 95.3152L107.444 105.139L107.43 105.071L113.859 105.464C117.45 105.681 120.915 106.87 123.881 108.904C126.847 110.938 129.202 113.74 130.694 117.01L134.57 127.803Z" fill="#6C63FF"/>
<path d="M317.01 128.048C303.668 143.209 284.892 152.522 264.735 153.977C244.578 155.431 224.656 148.911 209.271 135.824L215.876 117.417C217.368 114.148 219.724 111.346 222.69 109.312C225.656 107.278 229.12 106.089 232.711 105.871L236.913 105.614L246.933 96.9833C246.933 96.9833 273.93 96.0206 273.53 95.5596L289.883 105.383L289.87 105.315L296.298 105.709C299.89 105.925 303.354 107.114 306.32 109.148C309.286 111.182 311.642 113.985 313.134 117.254L317.01 128.048Z" fill="#6C63FF"/>
<path d="M507.086 128.048C493.745 143.209 474.969 152.522 454.811 153.977C434.654 155.431 414.732 148.911 399.347 135.824L405.952 117.417C407.444 114.148 409.8 111.346 412.766 109.312C415.732 107.278 419.196 106.089 422.787 105.871L426.989 105.614L437.009 96.9833C437.009 96.9833 464.007 96.0206 463.606 95.5596L479.959 105.383L479.946 105.315L486.374 105.709C489.966 105.925 493.431 107.114 496.397 109.148C499.363 111.182 501.718 113.985 503.21 117.254L507.086 128.048Z" fill="#6C63FF"/>
<path d="M473.792 223.291C471.715 215.866 466.995 209.453 460.52 205.256C455.359 201.96 448.919 200.277 443.072 202.02C437.225 203.763 432.385 209.494 432.768 215.685C430.657 214.968 428.258 215.922 426.713 217.552C425.168 219.183 424.338 221.376 423.743 223.559C421.866 230.501 421.991 237.83 424.101 244.704L423.985 245.691C426.838 245.22 429.001 242.776 430.347 240.171C431.692 237.567 432.466 234.678 433.924 232.138C435.383 229.597 437.804 227.331 440.693 227.252L440.438 231.661C442.923 230.383 445.409 229.104 447.894 227.825C447.303 229.237 446.712 230.65 446.121 232.062C448.291 231.156 450.461 230.25 452.632 229.344C452.389 230.702 452.147 232.06 451.904 233.418C454.057 228.525 460.713 226.375 465.242 229.111C467.872 230.7 469.597 233.532 470.505 236.505C471.412 239.479 471.592 242.624 471.765 245.733C475.119 238.739 475.838 230.772 473.792 223.291Z" fill="#2F2E41"/>
<path d="M241.548 436.524C241.502 436.396 241.46 436.267 241.415 436.139C241.325 436.219 241.239 436.3 241.141 436.374L241.548 436.524Z" fill="#2F2E41"/>
<path d="M290.761 417.436C290.641 415.069 290.021 412.754 288.939 410.643C287.858 408.533 286.342 406.675 284.489 405.193C283.128 404.118 281.553 403.21 280.651 401.728C280.137 400.679 279.702 399.594 279.348 398.481C277.554 394.218 272.443 391.952 267.858 392.597C263.273 393.243 259.305 396.323 256.633 400.099C255.316 399.469 253.846 399.229 252.397 399.407C250.947 399.586 249.58 400.175 248.455 401.106C247.331 402.036 246.498 403.269 246.053 404.658C245.609 406.047 245.572 407.535 245.948 408.944C243.574 407.034 239.733 408.562 238.251 411.223C236.769 413.884 237.004 417.14 237.445 420.153C238.243 425.598 239.573 430.952 241.415 436.139C243.727 434.106 243.585 430.403 243.302 427.274C243.009 424.022 243.185 420.052 246.032 418.447C248.782 416.897 252.121 418.599 255.154 419.479C257.552 420.158 260.069 420.309 262.531 419.922C264.993 419.535 267.342 418.62 269.415 417.239C270.995 416.171 272.402 414.834 274.105 413.976C275.808 413.118 277.975 412.82 279.561 413.879C281.009 414.846 281.598 416.65 282.091 418.319C283.259 422.274 284.426 426.229 285.594 430.184C287.308 428.544 288.655 426.561 289.546 424.363C290.437 422.166 290.851 419.805 290.761 417.436Z" fill="#2F2E41"/>
<path d="M106.651 223.768C106.843 221.723 106.931 219.669 106.915 217.614C107.027 213.551 106.282 209.51 104.727 205.753C102.815 201.594 99.4066 198.305 95.1784 196.541C90.9874 194.852 86.3036 194.856 82.1156 196.552C78.3345 194.166 74.1333 192.275 69.7089 192.04C65.2844 191.806 60.6065 193.446 57.88 197.054C57.2711 198.007 56.5796 198.904 55.8133 199.735C53.6217 201.763 50.2909 201.47 47.3777 201.056C48.6843 202.174 49.9913 203.292 51.2986 204.411C49.7169 204.824 48.1352 205.236 46.5532 205.649C48.3991 206.767 50.2448 207.885 52.0903 209.003C46.732 212.215 44.2965 219.226 44.9399 225.593C45.5485 231.621 48.4626 237.133 51.9462 242.033C53.3358 239.104 53.0364 235.6 53.0135 232.301C53.0008 231.231 53.0661 230.162 53.2091 229.101C64.982 231.92 77.2833 233.729 89.7582 229.252L92.2617 223.133C92.613 223.169 92.9646 223.203 93.3157 223.24L94.7661 229.258C98.0544 230.6 101.35 231.773 104.646 230.541C104.806 231.47 104.903 232.419 104.977 233.33C105.26 232.24 105.506 231.141 105.727 230.038C106.163 229.805 106.58 229.539 106.975 229.242C107.055 227.411 106.946 225.577 106.651 223.768Z" fill="#2F2E41"/>
</g>
<defs>
<clipPath id="clip0_87_651">
<rect width="527" height="518" fill="white"/>
</clipPath>
</defs>
</svg>
