<svg width="200" height="235" viewBox="0 0 200 235" fill="none" xmlns="http://www.w3.org/2000/svg">
<g clip-path="url(#clip0_81_299)">
<path d="M165.114 209.735C165.13 209.697 165.147 209.66 165.165 209.625C165.209 209.471 165.265 209.325 165.332 209.19L170.856 197.841L175.407 188.494H183.171L182.622 189.619L181.645 191.628L178.617 197.844L172.129 211.17L178.143 228.909C178.389 229.631 177.97 230.669 177.212 231.224L174.312 233.345C174.024 233.561 173.706 233.678 173.383 233.687C172.975 233.687 172.634 233.465 172.491 233.042L165.016 210.989C164.957 210.785 164.935 210.563 164.952 210.343C164.969 210.123 165.025 209.913 165.114 209.735Z" fill="#6C63FF"/>
<path d="M175.561 209.055L167.74 204.787C167.386 204.593 167.098 204.201 166.941 203.695C166.783 203.19 166.768 202.614 166.9 202.093L169.194 193.026C169.326 192.506 169.593 192.083 169.937 191.852C170.281 191.62 170.674 191.599 171.029 191.792L178.849 196.059C179.204 196.253 179.492 196.646 179.649 197.151C179.807 197.656 179.822 198.232 179.69 198.753L177.396 207.82C177.331 208.078 177.232 208.315 177.104 208.516C176.977 208.718 176.823 208.881 176.653 208.995C176.482 209.11 176.298 209.174 176.111 209.184C175.924 209.195 175.737 209.15 175.561 209.055H175.561Z" fill="#2F2E41"/>
<path d="M168.911 204.014C168.858 204.014 168.806 204 168.756 203.973H168.756C168.648 203.912 168.56 203.791 168.512 203.635C168.464 203.479 168.46 203.302 168.501 203.142L171.372 191.982C171.414 191.822 171.496 191.693 171.603 191.623C171.709 191.552 171.829 191.547 171.938 191.607C172.047 191.668 172.136 191.789 172.183 191.945C172.231 192.101 172.235 192.278 172.194 192.438L169.322 203.597C169.291 203.72 169.234 203.826 169.161 203.9C169.088 203.974 169 204.014 168.911 204.014Z" fill="white"/>
<path d="M181.531 232.026V191.721C181.53 191.683 181.532 191.646 181.535 191.609C181.549 191.141 181.655 190.689 181.841 190.309C182.026 189.929 182.284 189.637 182.581 189.469C182.771 189.358 182.973 189.302 183.177 189.303H186.418C186.855 189.303 187.273 189.558 187.582 190.012C187.891 190.465 188.064 191.08 188.065 191.721V232.026C188.064 232.667 187.891 233.282 187.582 233.735C187.273 234.188 186.855 234.443 186.418 234.444H183.177C182.741 234.443 182.322 234.188 182.014 233.735C181.705 233.282 181.531 232.667 181.531 232.026Z" fill="#6C63FF"/>
<path d="M179.772 206.872V197.199C179.772 196.644 179.923 196.111 180.19 195.718C180.458 195.325 180.821 195.104 181.199 195.104H189.542C189.921 195.104 190.283 195.325 190.551 195.718C190.819 196.111 190.969 196.644 190.97 197.199V206.872C190.969 207.427 190.819 207.96 190.551 208.353C190.283 208.746 189.921 208.967 189.542 208.967H181.199C180.821 208.967 180.458 208.746 180.19 208.353C179.923 207.96 179.772 207.427 179.772 206.872Z" fill="#2F2E41"/>
<path d="M186.156 207.947C186.039 207.946 185.928 207.878 185.845 207.757C185.763 207.637 185.717 207.473 185.717 207.302V195.372C185.717 195.201 185.763 195.037 185.845 194.916C185.928 194.795 186.039 194.728 186.156 194.728C186.272 194.728 186.384 194.795 186.466 194.916C186.549 195.037 186.595 195.201 186.595 195.372V207.302C186.595 207.473 186.548 207.637 186.466 207.757C186.384 207.878 186.272 207.946 186.156 207.947Z" fill="white"/>
<path d="M171.152 161.064L147.146 142.89C146.759 142.595 146.467 142.086 146.334 141.476C146.201 140.865 146.238 140.202 146.438 139.632L147.922 135.402C148.123 134.833 148.469 134.404 148.885 134.209C149.301 134.015 149.752 134.069 150.14 134.362L174.147 152.537C174.268 152.628 174.38 152.741 174.48 152.874C174.756 153.229 174.943 153.71 175.011 154.239C175.079 154.769 175.024 155.316 174.855 155.794L173.371 160.024C173.272 160.307 173.136 160.558 172.97 160.763C172.805 160.969 172.614 161.124 172.408 161.22C172.244 161.295 172.074 161.333 171.903 161.333C171.642 161.333 171.384 161.241 171.152 161.064Z" fill="#6C63FF"/>
<path d="M171.619 162.109L159.948 155.342C159.558 155.054 159.262 154.551 159.124 153.944C158.986 153.336 159.018 152.673 159.213 152.1L161.874 144.044C162.071 143.472 162.413 143.038 162.827 142.835C163.035 142.734 163.255 142.695 163.473 142.72C163.692 142.746 163.905 142.835 164.1 142.982L174.639 152.364C174.68 152.395 174.718 152.433 174.752 152.479C175.02 152.834 175.154 153.687 175.261 154.371L175.278 154.477C175.308 154.661 175.333 154.819 175.359 154.93L175.368 154.972C175.377 155.018 175.386 155.064 175.393 155.107C175.487 155.666 175.442 156.255 175.266 156.769L173.813 161.022C173.674 161.422 173.463 161.759 173.202 161.995C172.941 162.231 172.642 162.357 172.336 162.359C172.087 162.359 171.841 162.274 171.619 162.109Z" fill="#2F2E41"/>
<path d="M180.228 140.034C186.718 140.034 191.979 132.309 191.979 122.779C191.979 113.249 186.718 105.523 180.228 105.523C173.738 105.523 168.478 113.249 168.478 122.779C168.478 132.309 173.738 140.034 180.228 140.034Z" fill="#6C63FF"/>
<path d="M180.914 132.076L180.927 131.431C180.11 131.398 179.389 131.322 178.848 130.742C178.695 130.568 178.569 130.347 178.478 130.095C178.388 129.844 178.336 129.566 178.325 129.282C178.316 129.108 178.334 128.934 178.378 128.772C178.422 128.61 178.49 128.465 178.578 128.349C178.938 127.903 179.516 128.047 179.937 128.331L180.3 128.576L179.604 121.099L179.169 121.186L179.761 127.546C179.189 127.299 178.658 127.406 178.295 127.856C178.156 128.035 178.046 128.259 177.975 128.51C177.904 128.761 177.874 129.033 177.887 129.304C177.899 129.686 177.969 130.059 178.09 130.398C178.212 130.736 178.382 131.031 178.589 131.263C179.285 132.009 180.188 132.046 180.914 132.076Z" fill="#2F2E41"/>
<path d="M177.017 121.734H174.652V122.379H177.017V121.734Z" fill="#2F2E41"/>
<path d="M184.482 121.734H182.117V122.379H184.482V121.734Z" fill="#2F2E41"/>
<path d="M169.516 197.997C168.74 197.931 168.135 196.057 168.135 193.708V163.506C168.135 162.036 168.261 160.571 168.51 159.146L168.51 159.146C168.6 158.633 168.708 158.124 168.829 157.633C169.566 154.608 170.86 151.943 172.567 149.934C172.76 149.703 172.961 149.479 173.166 149.269C174.16 148.239 175.257 147.441 176.417 146.904C176.385 146.692 176.369 146.475 176.369 146.257C176.369 145.445 176.589 144.667 176.98 144.092C177.371 143.518 177.902 143.195 178.455 143.194H181.528C182.081 143.195 182.612 143.518 183.003 144.092C183.394 144.667 183.614 145.445 183.614 146.257C183.614 146.474 183.598 146.691 183.566 146.903C185.968 148.02 188.066 150.231 189.555 153.217C191.044 156.202 191.847 159.806 191.848 163.506V193.708C191.848 196.117 191.221 198.005 190.421 198.005H169.562C169.547 198.005 169.531 198.003 169.516 197.997Z" fill="#2F2E41"/>
<path d="M183.095 200.753C182.958 200.402 182.884 200.005 182.879 199.6L182.417 159.946C182.413 159.628 182.452 159.312 182.531 159.017C182.61 158.721 182.729 158.452 182.879 158.223L182.879 158.223C183.03 157.994 183.209 157.811 183.407 157.685C183.605 157.558 183.819 157.49 184.035 157.485L187.276 157.405C187.684 157.394 188.08 157.606 188.388 158.001C188.695 158.396 188.892 158.944 188.94 159.539C188.946 159.619 188.95 159.699 188.95 159.779L189.414 199.436C189.42 200.077 189.253 200.696 188.95 201.156C188.646 201.617 188.231 201.883 187.794 201.895L184.555 201.977C184.259 201.983 183.968 201.873 183.711 201.658C183.454 201.443 183.241 201.13 183.095 200.753V200.753Z" fill="#6C63FF"/>
<path d="M181.733 173.522C181.61 173.205 181.538 172.851 181.521 172.487L181.659 154.115C181.626 153.476 181.766 152.843 182.05 152.356C182.334 151.868 182.737 151.566 183.172 151.515L186.403 151.144C186.796 151.1 187.187 151.263 187.506 151.604C187.539 151.641 187.572 151.686 187.604 151.718C187.685 151.817 187.769 151.909 187.856 151.995L187.926 152.068C188.391 152.551 188.917 153.098 188.943 153.631L190.886 171.556C190.915 172.068 190.831 172.58 190.646 173.015C190.602 173.122 190.552 173.224 190.497 173.318C190.448 173.402 190.395 173.48 190.338 173.552C190.07 173.906 189.73 174.119 189.371 174.159L183.291 174.735C182.98 174.77 182.668 174.675 182.392 174.46C182.116 174.245 181.888 173.92 181.733 173.522V173.522Z" fill="#2F2E41"/>
<path d="M170.347 193.76C170.231 193.76 170.119 193.692 170.037 193.571C169.955 193.45 169.908 193.286 169.908 193.115V161.841C169.908 161.67 169.954 161.506 170.037 161.385C170.119 161.264 170.231 161.196 170.347 161.196C170.464 161.196 170.575 161.264 170.658 161.385C170.74 161.506 170.786 161.67 170.786 161.841V193.115C170.786 193.286 170.74 193.45 170.658 193.571C170.575 193.692 170.464 193.76 170.347 193.76Z" fill="white"/>
<path d="M190.885 118.68L170.472 107.713C170.364 107.655 170.264 107.566 170.179 107.452C170.094 107.337 170.026 107.199 169.977 107.045C169.929 106.892 169.901 106.726 169.896 106.556C169.891 106.387 169.909 106.218 169.949 106.059L170.018 105.58C171.612 99.1804 176.896 95.1529 181.254 97.494L187.536 100.869C191.894 103.21 193.788 110.787 192.194 117.187L192.012 117.911C191.932 118.233 191.768 118.494 191.557 118.638C191.346 118.782 191.104 118.797 190.885 118.68Z" fill="#2F2E41"/>
<path d="M191.985 119.288C163.533 120.83 161.047 115.58 169.716 107.325L171.555 102.355L192.633 113.64L191.985 119.288Z" fill="#2F2E41"/>
<path d="M186.406 100.082C186.563 99.3146 185.89 98.3393 184.903 97.9036C183.916 97.4679 182.989 97.7367 182.832 98.5041C182.674 99.2715 183.347 100.247 184.334 100.682C185.321 101.118 186.249 100.849 186.406 100.082Z" fill="#2F2E41"/>
<path d="M62.2639 0C41.8633 0 25.2688 24.3684 25.2688 54.3259C25.263 61.9943 26.3687 69.5767 28.5126 76.5691C34.3104 95.4658 47.2557 108.652 62.2639 108.652C72.074 108.644 81.4807 102.918 88.4174 92.7313C95.3542 82.5449 99.2536 68.7316 99.259 54.3259C99.259 24.3684 82.6616 0 62.2639 0ZM92.8722 76.1649C90.0786 84.596 85.7277 91.7046 80.3159 96.6802C74.904 101.656 68.649 104.298 62.2639 104.306C47.8418 104.306 35.4854 91.0632 30.5399 72.4229C29.0072 66.6552 28.2232 60.5172 28.2284 54.3259C28.2284 26.7674 43.497 4.34608 62.2639 4.34608C81.0308 4.34608 96.2994 26.7674 96.2994 54.3259C96.3059 61.8941 95.1336 69.3641 92.8722 76.1649Z" fill="#E6E6E6"/>
<path d="M62.264 108.813C55.2564 108.804 48.3933 105.886 42.4673 100.394C36.5412 94.9016 31.7937 87.0603 28.7731 77.775C28.6525 77.4048 28.6002 76.9946 28.6213 76.5854C28.6424 76.1762 28.7362 75.7822 28.8933 75.4429L28.9132 75.4002C29.0701 75.0664 29.2841 74.799 29.5336 74.625C29.7831 74.451 30.0594 74.3764 30.3348 74.4087C30.6102 74.4411 30.8749 74.5792 31.1024 74.8093C31.3299 75.0393 31.5122 75.3533 31.631 75.7195C37.2438 92.9868 49.2679 104.144 62.2639 104.144C68.2029 104.122 74.0348 101.82 79.181 97.4665C84.3272 93.113 88.6088 86.8594 91.6011 79.326C91.7403 78.9722 91.9407 78.6788 92.1821 78.4756C92.4234 78.2724 92.6972 78.1667 92.9754 78.1692C93.2507 78.1682 93.5211 78.2749 93.759 78.4785C93.9968 78.6821 94.1933 78.9751 94.3283 79.3274L94.3456 79.372C94.4825 79.7275 94.5538 80.1294 94.5523 80.5378C94.5509 80.9462 94.4767 81.347 94.3372 81.7004C91.0635 89.9318 86.3817 96.764 80.7558 101.52C75.1299 106.275 68.7554 108.789 62.264 108.813Z" fill="#6C63FF"/>
<path d="M53.9254 59.2946C54.9309 59.285 55.9076 59.7883 56.6886 60.7184C57.4696 61.6485 58.0066 62.9479 58.2078 64.3947C58.4091 65.8414 58.2621 67.3459 57.7921 68.6513C57.322 69.9567 56.558 70.982 55.6304 71.5523C54.7028 72.1225 53.6692 72.2024 52.706 71.7781C51.7429 71.3538 50.9098 70.4518 50.3491 69.226C49.7884 68.0002 49.5348 66.5267 49.6316 65.0569C49.7284 63.5871 50.1696 62.2122 50.8799 61.1669C51.278 60.5746 51.7521 60.1041 52.2749 59.7827C52.7977 59.4613 53.3587 59.2954 53.9254 59.2946ZM53.9254 56.5783C52.7057 56.5773 51.5132 57.1075 50.4987 58.1018C49.4841 59.0961 48.6932 60.5098 48.2258 62.1642C47.7585 63.8186 47.6357 65.6393 47.873 67.3962C48.1103 69.1531 48.697 70.7671 49.559 72.0343C50.4211 73.3015 51.5196 74.1649 52.7157 74.5152C53.9119 74.8656 55.1519 74.6872 56.279 74.0027C57.4061 73.3182 58.3697 72.1582 59.0479 70.6695C59.7261 69.1808 60.0884 67.4302 60.089 65.6391C60.0899 63.2373 59.441 60.9334 58.2851 59.2342C57.1292 57.5349 55.561 56.5796 53.9254 56.5783H53.9254ZM66.7746 46.3437C67.3324 46.3479 67.8685 46.0264 68.265 45.4501C68.6614 44.8738 68.8858 44.0899 68.8886 43.2707C68.8886 43.2603 68.8886 43.2498 68.8886 43.2394C68.8912 42.8381 68.84 42.44 68.7378 42.0678C68.6356 41.6955 68.4845 41.3565 68.2931 41.0701C68.1017 40.7836 67.8738 40.5553 67.6223 40.3982C67.3709 40.2411 67.1008 40.1583 66.8275 40.1544C66.8143 40.1543 66.801 40.1543 66.7878 40.1544C66.2289 40.1467 65.6908 40.4653 65.2919 41.0402C64.8929 41.6151 64.6658 42.3991 64.6606 43.2198C64.6553 44.0406 64.8723 44.8308 65.2638 45.4166C65.6552 46.0024 66.1892 46.3358 66.7481 46.3436C66.7569 44.5328 66.7658 43.6274 66.7746 43.6274V46.3437ZM71.1942 62.0109C72.1997 62.0013 73.1764 62.5045 73.9574 63.4347C74.7384 64.3648 75.2754 65.6642 75.4766 67.1109C75.6779 68.5577 75.5309 70.0622 75.0609 71.3676C74.5908 72.673 73.8268 73.6983 72.8992 74.2686C71.9716 74.8388 70.938 74.9187 69.9748 74.4944C69.0117 74.0701 68.1786 73.1681 67.6179 71.9423C67.0572 70.7165 66.8036 69.243 66.9004 67.7732C66.9972 66.3034 67.4384 64.9285 68.1487 63.8832C68.5468 63.2909 69.0209 62.8204 69.5437 62.499C70.0665 62.1776 70.6275 62.0117 71.1942 62.0109ZM71.1942 59.2946C69.9751 59.2946 68.7835 59.8255 67.7698 60.82C66.7562 61.8145 65.9662 63.2281 65.4997 64.882C65.0332 66.5359 64.9111 68.3557 65.149 70.1115C65.3868 71.8672 65.9738 73.48 66.8358 74.7458C67.6978 76.0116 68.7961 76.8736 69.9917 77.2229C71.1874 77.5721 72.4267 77.3929 73.5529 76.7078C74.6792 76.0228 75.6418 74.8627 76.3191 73.3742C76.9963 71.8858 77.3578 70.1358 77.3578 68.3457C77.3578 67.1571 77.1984 65.9801 76.8887 64.882C76.5789 63.7839 76.1249 62.7861 75.5525 61.9456C74.9802 61.1051 74.3007 60.4384 73.5529 59.9836C72.8051 59.5287 72.0036 59.2946 71.1942 59.2946Z" fill="#E6E6E6"/>
<path d="M69.9588 49.8552H66.7878L64.839 44.0249C64.6817 43.6161 64.462 43.2664 64.1971 43.0033C63.9323 42.7403 63.6294 42.5711 63.3125 42.509C62.9955 42.447 62.6731 42.4938 62.3706 42.6457C62.068 42.7976 61.7936 43.0506 61.5689 43.3846L56.8322 50.0881C56.4444 50.6692 56.2244 51.4476 56.2178 52.2611C56.2178 53.9491 57.0502 54.5506 57.4399 54.8901C60.4458 57.4318 61.5028 57.7131 61.5028 58.9839V65.3769C61.5028 65.7886 61.6141 66.1834 61.8124 66.4745C62.0106 66.7656 62.2794 66.9291 62.5598 66.9291C62.8401 66.9291 63.109 66.7656 63.3072 66.4745C63.5054 66.1834 63.6168 65.7886 63.6168 65.3769V56.646C63.6168 55.3654 61.6085 54.3177 60.426 52.9596L63.6564 47.9636C64.8918 50.7284 65.4599 52.9596 66.1668 52.9596H69.9588C70.2391 52.9603 70.5082 52.7974 70.7067 52.5067C70.9053 52.2161 71.0171 51.8216 71.0175 51.4099C71.018 50.9983 70.907 50.6032 70.7091 50.3117C70.5112 50.0201 70.2426 49.8559 69.9622 49.8553H69.9588V49.8552Z" fill="#E6E6E6"/>
<path d="M32.5072 137.947C31.5966 137.947 30.8428 141.84 30.6966 146.945H13.1794C13.0333 141.84 12.2794 137.947 11.3689 137.947C10.3537 137.947 9.53076 142.781 9.53076 148.744C9.53076 154.707 10.3537 159.541 11.3689 159.541C12.2794 159.541 13.0333 155.648 13.1794 150.543H30.6966C30.8427 155.648 31.5966 159.541 32.5072 159.541C33.5223 159.541 34.3453 154.707 34.3453 148.744C34.3453 142.781 33.5223 137.947 32.5072 137.947Z" fill="#E6E6E6"/>
<path d="M41.0398 132.803C38.4435 125.97 34.24 120.761 29.2164 118.151C24.1929 115.541 18.6937 115.709 13.7486 118.624C8.80351 121.54 4.75161 127.002 2.35159 133.988C-0.0484276 140.975 -0.631983 149.006 0.71019 156.579C2.05236 164.152 5.22823 170.746 9.64312 175.128C14.058 179.51 19.4092 181.379 24.6947 180.384C29.9802 179.389 34.8375 175.599 38.3572 169.724C41.8769 163.849 43.8176 156.292 43.8159 148.467C43.8148 142.983 42.8591 137.592 41.0398 132.803ZM21.903 178.068C16.592 178.028 11.5085 174.896 7.76744 169.36C4.02639 163.824 1.93321 156.336 1.94695 148.537C1.96069 140.737 4.08024 133.265 7.84074 127.757C11.6012 122.25 16.6957 119.157 22.0068 119.157C27.3179 119.158 32.4121 122.252 36.1721 127.76C39.9321 133.268 42.051 140.741 42.0641 148.54C42.0771 156.339 39.9833 163.828 36.2417 169.363C32.5002 174.898 27.4164 178.029 22.1054 178.068C22.0379 178.068 21.9705 178.068 21.903 178.068Z" fill="#E6E6E6"/>
<path d="M21.9137 180.806C17.7384 180.808 13.649 179.065 10.1241 175.779C9.94803 175.614 9.81216 175.371 9.73607 175.085L9.72502 175.044C9.64851 174.761 9.63593 174.449 9.68914 174.155C9.74235 173.861 9.85854 173.6 10.0206 173.41C10.1772 173.216 10.372 173.102 10.5762 173.084C10.7805 173.065 10.9833 173.144 11.1548 173.308C14.9015 176.81 19.3342 178.385 23.7567 177.786C28.1792 177.187 32.3408 174.447 35.5877 169.997C38.8346 165.547 40.9829 159.64 41.6951 153.202C42.4072 146.765 41.6429 140.162 39.5221 134.432C39.4227 134.169 39.3834 133.867 39.41 133.569C39.4366 133.271 39.5277 132.993 39.6698 132.777C39.8102 132.553 39.996 132.401 40.1997 132.343C40.4034 132.285 40.6144 132.326 40.8014 132.457L40.8289 132.476C41.0165 132.605 41.1714 132.818 41.2713 133.085C43.0866 138.008 44.0001 143.539 43.9225 149.136C43.8449 154.733 42.7788 160.205 40.8285 165.015C38.8782 169.826 36.1107 173.81 32.7968 176.578C29.483 179.346 25.7364 180.803 21.924 180.806H21.9137Z" fill="#6C63FF"/>
<path d="M102.615 116.294C99.7366 116.292 96.8864 117.123 94.227 118.739C91.5675 120.355 89.1509 122.724 87.1151 125.712C85.0793 128.699 83.4643 132.247 82.3622 136.151C81.2602 140.055 80.6927 144.24 80.6921 148.466C80.6916 152.693 81.2581 156.878 82.3592 160.783C83.4603 164.688 85.0745 168.236 87.1095 171.225C89.1445 174.213 91.5606 176.584 94.2196 178.201C96.8787 179.819 99.7287 180.651 102.607 180.651H102.615C102.757 180.651 102.896 180.651 103.038 180.642C108.812 180.479 114.309 176.975 118.333 170.892C122.357 164.81 124.583 156.64 124.527 148.16C124.471 139.68 122.138 131.575 118.035 125.608C113.931 119.641 108.39 116.293 102.615 116.294V116.294ZM107.081 177.339C104.315 178.261 101.448 178.316 98.6662 177.5C95.8848 176.684 93.252 175.015 90.9399 172.603C88.6278 170.19 86.6883 167.088 85.2483 163.5C83.8083 159.912 82.9001 155.918 82.5832 151.779C82.2662 147.64 82.5476 143.449 83.4089 139.481C84.2702 135.512 85.6921 131.855 87.5816 128.749C89.4711 125.643 91.7857 123.157 94.3741 121.454C96.9625 119.751 99.7666 118.87 102.603 118.867H102.615C107.573 118.866 112.357 121.549 116.053 126.401C119.749 131.254 122.097 137.936 122.65 145.171C123.203 152.406 121.92 159.686 119.048 165.62C116.176 171.555 111.915 175.726 107.081 177.339Z" fill="#E6E6E6"/>
<path d="M102.615 180.812C97.1798 180.812 91.9369 177.86 87.8944 172.526C83.852 167.191 81.2956 159.85 80.717 151.915C80.1384 143.979 81.5784 136.01 84.7601 129.539C87.9418 123.069 92.6404 118.555 97.952 116.865C98.0827 116.824 98.2176 116.821 98.349 116.857L98.3947 116.87C98.6151 116.933 98.8139 117.105 98.9578 117.358C99.1016 117.611 99.1816 117.93 99.1842 118.259C99.1868 118.589 99.1119 118.91 98.9721 119.168C98.8323 119.426 98.6362 119.605 98.4169 119.675C93.575 121.199 89.2884 125.301 86.3828 131.189C83.4772 137.078 82.1582 144.337 82.6798 151.568C83.2015 158.799 85.5268 165.492 89.2079 170.356C92.8891 175.219 97.6657 177.911 102.618 177.912C102.811 177.909 103 177.908 103.191 177.9C103.404 177.887 103.614 177.985 103.783 178.176C103.952 178.367 104.07 178.639 104.116 178.945C104.166 179.241 104.144 179.553 104.052 179.827C103.961 180.101 103.807 180.318 103.617 180.441V180.441C103.488 180.528 103.358 180.613 103.228 180.697C103.118 180.768 103 180.806 102.88 180.81C102.792 180.812 102.704 180.812 102.615 180.812Z" fill="#6C63FF"/>
<path d="M113.425 147.104C112.841 147.061 112.264 147.3 111.781 147.783C111.298 148.267 110.936 148.97 110.751 149.784H108.593L107.017 142.827C106.959 142.566 106.846 142.339 106.695 142.178C106.543 142.018 106.361 141.931 106.174 141.931H106.158C105.968 141.935 105.784 142.03 105.634 142.2C105.484 142.37 105.376 142.607 105.325 142.876L102.857 155.527L99.9554 129.939C99.9218 129.643 99.8197 129.373 99.6665 129.174C99.5132 128.975 99.318 128.86 99.1137 128.848C98.9094 128.835 98.7084 128.927 98.5445 129.106C98.3806 129.286 98.2637 129.542 98.2135 129.833L95.2732 149.784H91.978C91.7425 149.784 91.5168 149.921 91.3503 150.166C91.1838 150.41 91.0903 150.742 91.0903 151.087C91.0903 151.433 91.1838 151.765 91.3503 152.009C91.5168 152.254 91.7425 152.391 91.978 152.391H95.9722C96.1699 152.391 96.3621 152.294 96.5179 152.116C96.6738 151.937 96.7844 151.687 96.8321 151.405L98.9069 136.562L101.753 161.645C101.785 161.937 101.885 162.204 102.036 162.402C102.186 162.599 102.378 162.714 102.579 162.729H102.629C102.822 162.728 103.01 162.636 103.164 162.466C103.318 162.295 103.43 162.056 103.484 161.784L106.241 147.641L107.112 151.495C107.171 151.755 107.284 151.981 107.436 152.141C107.587 152.302 107.768 152.389 107.955 152.391H110.79C110.959 153.05 111.247 153.63 111.622 154.069C111.998 154.508 112.447 154.79 112.922 154.885C113.397 154.98 113.882 154.884 114.323 154.609C114.765 154.333 115.147 153.888 115.431 153.319C115.714 152.751 115.888 152.08 115.933 151.379C115.978 150.677 115.894 149.971 115.688 149.334C115.483 148.698 115.164 148.154 114.766 147.762C114.367 147.369 113.904 147.142 113.425 147.104H113.425Z" fill="#E6E6E6"/>
<path d="M199.781 234.545H159.601C159.543 234.545 159.487 234.511 159.446 234.451C159.405 234.39 159.382 234.308 159.382 234.223C159.382 234.137 159.405 234.055 159.446 233.995C159.487 233.934 159.543 233.9 159.601 233.9H199.781C199.839 233.9 199.895 233.934 199.936 233.995C199.977 234.055 200 234.137 200 234.223C200 234.308 199.977 234.39 199.936 234.451C199.895 234.511 199.839 234.545 199.781 234.545Z" fill="#3F3D56"/>
</g>
<defs>
<clipPath id="clip0_81_299">
<rect width="200" height="234.545" fill="white"/>
</clipPath>
</defs>
</svg>
