<svg width="726" height="635" viewBox="0 0 726 635" fill="none" xmlns="http://www.w3.org/2000/svg">
<g clip-path="url(#clip0_73_640)">
<path d="M660.302 579.688C646.396 596.288 630.462 610.621 612.97 622.264C612.569 622.539 612.161 622.797 611.752 623.064L583.433 595.119C583.731 594.811 584.06 594.465 584.415 594.085C605.515 571.747 710.264 415.558 717.244 377.523C716.762 380.692 723.542 504.954 660.302 579.688Z" fill="#F0F0F0"/>
<path d="M618.434 627.656C617.899 627.799 617.354 627.932 616.807 628.054L595.562 607.089C595.978 606.927 596.463 606.735 597.018 606.522C606.133 602.924 633.282 592.06 660.3 579.686C689.33 566.385 718.222 551.356 724.435 541.729C723.103 543.966 682.044 611.797 618.434 627.656Z" fill="#F0F0F0"/>
<path d="M659.909 166.305H656.883V73.8953C656.883 66.8717 655.643 59.9168 653.232 53.4278C650.821 46.9388 647.288 41.0428 642.834 36.0763C638.379 31.1098 633.091 27.1702 627.271 24.4824C621.451 21.7945 615.213 20.4111 608.914 20.4111H433.318C427.019 20.4111 420.781 21.7945 414.961 24.4823C409.141 27.1701 403.853 31.1097 399.399 36.0762C394.944 41.0426 391.411 46.9387 389 53.4276C386.59 59.9166 385.349 66.8715 385.349 73.8951V580.861C385.349 587.885 386.59 594.84 389 601.329C391.411 607.818 394.944 613.714 399.399 618.68C403.853 623.647 409.141 627.586 414.961 630.274C420.781 632.962 427.019 634.345 433.318 634.345H608.914C615.213 634.345 621.451 632.962 627.271 630.274C633.091 627.586 638.379 623.647 642.833 618.68C647.288 613.714 650.821 607.818 653.232 601.329C655.643 594.84 656.883 587.885 656.883 580.861V232.083H659.909V166.305Z" fill="#3F3D56"/>
<path d="M646.672 74.2627V580.491C646.672 585.736 645.746 590.93 643.945 595.776C642.144 600.622 639.505 605.025 636.178 608.733C632.851 612.441 628.901 615.382 624.554 617.388C620.207 619.394 615.548 620.426 610.844 620.424H434.403C429.699 620.424 425.042 619.392 420.696 617.385C416.351 615.378 412.402 612.437 409.076 608.729C405.751 605.02 403.112 600.618 401.313 595.773C399.513 590.928 398.587 585.735 398.587 580.491V74.2627C398.587 69.0185 399.513 63.8256 401.313 58.9805C403.112 54.1354 405.751 49.7331 409.076 46.0248C412.402 42.3166 416.351 39.3752 420.696 37.3685C425.042 35.3618 429.699 34.3292 434.403 34.3296H455.815C454.764 37.2111 454.364 40.3363 454.65 43.4305C454.937 46.5248 455.901 49.4931 457.457 52.0745C459.014 54.6559 461.116 56.7713 463.578 58.2346C466.04 59.6979 468.786 60.4643 471.576 60.4663H572.17C574.962 60.4693 577.711 59.7061 580.176 58.2442C582.64 56.7823 584.744 54.6666 586.302 52.0837C587.859 49.5008 588.823 46.5302 589.107 43.4339C589.392 40.3376 588.988 37.2109 587.932 34.3296H610.844C615.548 34.3277 620.207 35.3592 624.554 37.3652C628.901 39.3711 632.851 42.3123 636.178 46.0206C639.505 49.7289 642.144 54.1318 643.945 58.9776C645.746 63.8235 646.672 69.0174 646.672 74.2627Z" fill="white"/>
<path d="M591.788 337.326H436.702C433.985 337.322 431.381 336.118 429.46 333.976C427.539 331.835 426.459 328.931 426.456 325.902V320.216C426.459 317.187 427.539 314.284 429.46 312.142C431.381 310.001 433.985 308.796 436.702 308.792H591.788C594.504 308.796 597.109 310.001 599.029 312.142C600.95 314.284 602.031 317.187 602.034 320.216V325.902C602.031 328.931 600.95 331.835 599.029 333.976C597.109 336.118 594.504 337.322 591.788 337.326Z" fill="#F0F0F0"/>
<path d="M591.788 386.341H436.702C433.985 386.338 431.381 385.133 429.46 382.992C427.539 380.85 426.459 377.947 426.456 374.918V369.232C426.459 366.203 427.539 363.299 429.46 361.158C431.381 359.016 433.985 357.812 436.702 357.808H591.788C594.504 357.812 597.109 359.016 599.029 361.158C600.95 363.299 602.031 366.203 602.034 369.232V374.918C602.031 377.947 600.95 380.85 599.029 382.992C597.109 385.133 594.504 386.338 591.788 386.341Z" fill="#F0F0F0"/>
<path d="M599.546 326.364H444.459C441.607 326.36 438.873 325.095 436.856 322.846C434.839 320.598 433.705 317.549 433.701 314.369V308.683C433.705 305.503 434.839 302.454 436.856 300.205C438.873 297.957 441.607 296.692 444.459 296.688H599.546C602.398 296.692 605.132 297.957 607.149 300.205C609.166 302.454 610.301 305.503 610.304 308.683V314.369C610.301 317.549 609.166 320.598 607.149 322.846C605.132 325.095 602.398 326.36 599.546 326.364ZM444.459 298.973C442.151 298.976 439.937 300 438.304 301.82C436.672 303.64 435.753 306.108 435.751 308.683V314.369C435.753 316.943 436.672 319.411 438.304 321.232C439.937 323.052 442.151 324.076 444.459 324.079H599.546C601.855 324.076 604.068 323.052 605.701 321.232C607.334 319.411 608.252 316.943 608.255 314.369V308.683C608.252 306.108 607.334 303.64 605.701 301.82C604.068 300 601.855 298.976 599.546 298.973H444.459Z" fill="#3F3D56"/>
<path d="M599.546 375.379H444.459C441.607 375.375 438.873 374.11 436.856 371.862C434.839 369.613 433.705 366.564 433.701 363.384V357.698C433.705 354.518 434.839 351.469 436.856 349.22C438.873 346.972 441.607 345.707 444.459 345.703H599.546C602.398 345.707 605.132 346.972 607.149 349.22C609.166 351.469 610.301 354.518 610.304 357.698V363.384C610.301 366.564 609.166 369.613 607.149 371.862C605.132 374.11 602.398 375.375 599.546 375.379ZM444.459 347.988C442.151 347.991 439.937 349.015 438.304 350.835C436.672 352.655 435.753 355.124 435.751 357.698V363.384C435.753 365.958 436.672 368.427 438.304 370.247C439.937 372.067 442.151 373.091 444.459 373.094H599.546C601.855 373.091 604.068 372.067 605.701 370.247C607.334 368.427 608.252 365.958 608.255 363.384V357.698C608.252 355.124 607.334 352.655 605.701 350.835C604.068 349.015 601.855 347.991 599.546 347.988H444.459Z" fill="#3F3D56"/>
<path d="M646.672 74.2627V184.374C630.98 188.977 614.55 189.506 598.646 185.918C582.742 182.331 567.788 174.723 554.934 163.681C542.081 152.639 531.671 138.456 524.504 122.225C517.338 105.993 513.607 88.1449 513.598 70.0532C513.598 66.824 513.715 63.6283 513.947 60.4663H572.17C574.962 60.4693 577.711 59.7061 580.176 58.2442C582.64 56.7823 584.744 54.6666 586.302 52.0837C587.859 49.5008 588.823 46.5302 589.107 43.4339C589.392 40.3376 588.988 37.2109 587.932 34.3296H610.844C615.548 34.3277 620.207 35.3592 624.554 37.3652C628.901 39.3711 632.851 42.3123 636.178 46.0206C639.505 49.7289 642.144 54.1318 643.945 58.9776C645.746 63.8235 646.672 69.0174 646.672 74.2627Z" fill="#F0F0F0"/>
<path d="M487.739 613.547C487.739 615.868 487.661 618.161 487.493 620.424H434.403C429.699 620.424 425.042 619.392 420.696 617.385C416.351 615.378 412.402 612.437 409.076 608.729C405.751 605.02 403.112 600.618 401.313 595.773C399.513 590.928 398.587 585.735 398.587 580.491V526.343C409.715 524.73 421.024 525.779 431.76 529.422C442.497 533.064 452.413 539.216 460.849 547.468C469.285 555.719 476.046 565.881 480.683 577.275C485.32 588.67 487.725 601.035 487.739 613.547H487.739Z" fill="#6C63FF"/>
<path d="M59.5496 518.538C61.0413 519.269 62.7325 519.311 64.252 518.655C65.7715 517.998 66.9952 516.696 67.655 515.034L115.481 394.18C116.576 391.414 116.91 388.349 116.442 385.371C115.974 382.393 114.725 379.637 112.852 377.451C110.979 375.265 108.567 373.748 105.921 373.091C103.274 372.433 100.512 372.666 97.9843 373.759H97.9842C95.0636 375.002 92.6197 377.336 91.0682 380.362C90.8214 380.841 90.5976 381.334 90.3977 381.839L42.5713 502.694C42.2453 503.517 42.0681 504.404 42.0496 505.304C42.0311 506.204 42.1718 507.099 42.4637 507.939C42.7555 508.778 43.1928 509.545 43.7505 510.196C44.3082 510.846 44.9754 511.368 45.7141 511.732L59.5496 518.538Z" fill="#6C63FF"/>
<path d="M113.518 443.796L66.2115 432.074L77.9203 397.539C79.915 389.098 84.557 381.733 91.0044 376.781C97.4518 371.829 105.278 369.617 113.062 370.547L113.518 370.603L113.518 443.796Z" fill="#2F2E41"/>
<path d="M209.069 520.267C207.678 520.264 206.317 519.812 205.151 518.965C203.985 518.119 203.064 516.913 202.5 515.495L154.674 394.641C153.153 390.796 153.011 386.446 154.279 382.489C155.546 378.531 158.125 375.265 161.487 373.363C164.848 371.461 168.735 371.067 172.348 372.264C175.962 373.46 179.027 376.155 180.912 379.793V379.793C181.177 380.307 181.418 380.836 181.632 381.379L229.458 502.233C230.226 504.174 230.271 506.375 229.584 508.352C228.896 510.329 227.532 511.921 225.792 512.777L211.487 519.814L211.48 519.796C210.707 520.107 209.891 520.266 209.069 520.267Z" fill="#6C63FF"/>
<path d="M142.913 478.766C141.283 478.768 139.721 479.49 138.568 480.775C137.416 482.06 136.767 483.803 136.766 485.62V626.146C136.767 627.963 137.416 629.705 138.568 630.99C139.721 632.275 141.283 632.998 142.913 633H158.035C159.665 632.998 161.228 632.275 162.38 630.99C163.533 629.705 164.181 627.963 164.183 626.146V485.62C164.181 483.803 163.533 482.06 162.38 480.775C161.228 479.49 159.665 478.768 158.035 478.766H142.913Z" fill="#6C63FF"/>
<path d="M113.003 478.766C111.373 478.768 109.811 479.49 108.658 480.775C107.506 482.06 106.858 483.803 106.856 485.62V626.146C106.858 627.963 107.506 629.705 108.658 630.99C109.811 632.275 111.373 632.998 113.003 633H128.126C129.756 632.998 131.318 632.275 132.471 630.99C133.623 629.705 134.271 627.963 134.273 626.146V485.62C134.271 483.803 133.623 482.06 132.471 480.775C131.318 479.49 129.756 478.768 128.126 478.766H113.003Z" fill="#6C63FF"/>
<path d="M135.068 331.54C163.926 331.54 187.321 305.456 187.321 273.28C187.321 241.104 163.926 215.02 135.068 215.02C106.209 215.02 82.8143 241.104 82.8143 273.28C82.8143 305.456 106.209 331.54 135.068 331.54Z" fill="#6C63FF"/>
<path d="M152.456 297.736C155.844 297.632 160.059 297.5 163.307 294.855C164.274 294.035 165.068 292.99 165.635 291.791C166.201 290.593 166.525 289.271 166.585 287.918C166.644 286.957 166.503 285.993 166.172 285.103C165.841 284.212 165.33 283.419 164.679 282.785C162.983 281.187 160.506 280.812 157.837 281.687L160.603 259.153L158.572 258.843L155.321 285.335L157.016 284.467C158.982 283.462 161.68 282.951 163.357 284.53C163.768 284.943 164.089 285.456 164.294 286.03C164.499 286.604 164.582 287.222 164.538 287.838C164.488 288.845 164.244 289.828 163.823 290.721C163.402 291.613 162.814 292.394 162.098 293.01C159.571 295.069 156.21 295.334 152.399 295.453L152.456 297.736Z" fill="#2F2E41"/>
<path d="M181.679 261.097H170.642V263.381H181.679V261.097Z" fill="#2F2E41"/>
<path d="M146.843 261.097H135.807V263.381H146.843V261.097Z" fill="#2F2E41"/>
<path d="M186.843 520.976L168.036 367.9C167.834 366.259 167.106 364.754 165.986 363.665C164.866 362.576 163.431 361.976 161.945 361.976H147.749C147.808 361.599 147.839 361.217 147.841 360.834V355.122C147.841 353.304 147.193 351.561 146.04 350.276C144.888 348.99 143.324 348.268 141.694 348.268H129.399C127.768 348.268 126.205 348.99 125.052 350.276C123.899 351.561 123.251 353.304 123.251 355.122V360.834C123.253 361.217 123.284 361.599 123.343 361.976H109.147C107.662 361.976 106.226 362.576 105.106 363.665C103.986 364.755 103.258 366.259 103.057 367.9L84.2494 520.976C84.1303 521.946 84.1988 522.933 84.4503 523.87C84.7018 524.808 85.1304 525.675 85.7074 526.412C86.2845 527.15 86.9965 527.741 87.7955 528.146C88.5945 528.551 89.4621 528.761 90.3399 528.761H180.752C181.63 528.761 182.498 528.551 183.297 528.146C184.096 527.741 184.808 527.15 185.385 526.412C185.962 525.675 186.391 524.808 186.642 523.87C186.894 522.933 186.962 521.946 186.843 520.976Z" fill="#2F2E41"/>
<path d="M157.575 443.796V370.604L158.03 370.547C165.824 369.618 173.659 371.837 180.11 376.801C186.562 381.765 191.202 389.144 193.189 397.599L204.881 432.075L157.575 443.796Z" fill="#2F2E41"/>
<path d="M132.436 333.358L96.294 317.717C90.3839 315.159 84.4409 312.68 78.5622 310.034C76.044 309.056 73.7244 307.531 71.7369 305.549C70.0066 303.507 68.8274 300.962 68.3342 298.207C67.0807 292.299 67.3073 285.841 67.3967 279.812C67.4661 273.217 67.9529 266.636 68.8534 260.117C70.4317 247.867 74.1383 236.079 79.7654 225.412C89.9012 206.869 107.365 192.919 127.452 194.032C136.752 194.548 146.105 198.268 153.014 205.358C153.735 206.318 154.544 207.192 155.427 207.965C156.042 208.222 156.71 208.272 157.349 208.109C158.192 208.048 159.036 208.002 159.881 207.97C162.811 207.833 165.747 207.97 168.657 208.381C173.96 209.02 178.985 211.346 183.134 215.083C186.587 218.395 189.397 223.07 189.686 228.266C189.826 230.651 189.472 233.04 188.652 235.249C187.832 237.457 186.569 239.426 184.958 241.004C180.646 245.056 174.494 243.632 169.322 243.326L150.374 242.207L140.773 241.64C138.796 241.523 138.802 244.951 140.773 245.067L166.29 246.574C170.391 246.816 174.617 247.41 178.721 247.136C181.874 246.977 184.885 245.626 187.259 243.306C189.427 241.086 191.041 238.277 191.946 235.154C192.85 232.03 193.013 228.699 192.419 225.484C191.104 218.473 186.423 212.673 180.937 209.223C173.472 204.528 164.556 204.078 156.203 204.772L157.29 205.274C147.841 193.967 133.368 189.192 119.78 190.863C105.434 192.627 92.6737 201.551 83.5058 213.753C73.2842 227.358 67.7141 244.322 65.5486 261.766C64.4217 271.185 64.0507 280.696 64.44 290.188C64.424 294.374 65.0663 298.531 66.3378 302.47C67.7886 306.303 70.4116 309.438 73.7405 311.318C77.557 313.373 81.4806 315.17 85.4901 316.7L98.8057 322.462L124.961 333.782L131.619 336.663C133.464 337.461 134.264 334.149 132.436 333.358Z" fill="#2F2E41"/>
<path d="M75.6087 216.897C72.4677 216.897 69.3973 215.858 66.7857 213.912C64.1741 211.967 62.1386 209.201 60.9367 205.966C59.7347 202.731 59.4202 199.17 60.0329 195.736C60.6457 192.301 62.1582 189.146 64.3792 186.67C66.6002 184.193 69.4299 182.507 72.5105 181.824C75.5911 181.14 78.7842 181.491 81.686 182.831C84.5879 184.171 87.0681 186.441 88.8131 189.353C90.5581 192.265 91.4896 195.688 91.4896 199.19C91.4848 203.884 89.8101 208.385 86.8329 211.705C83.8557 215.024 79.8191 216.891 75.6087 216.897ZM75.6087 184.91C73.0757 184.91 70.5995 185.748 68.4934 187.317C66.3873 188.886 64.7457 191.116 63.7764 193.725C62.8071 196.335 62.5534 199.206 63.0476 201.976C63.5418 204.746 64.7615 207.29 66.5526 209.287C68.3438 211.284 70.6258 212.644 73.1101 213.195C75.5945 213.746 78.1696 213.463 80.5098 212.382C82.85 211.302 84.8502 209.471 86.2574 207.123C87.6647 204.775 88.4158 202.014 88.4158 199.19C88.412 195.404 87.0615 191.775 84.6605 189.098C82.2595 186.421 79.0042 184.915 75.6087 184.91Z" fill="#2F2E41"/>
<path d="M341.08 326.626L306.706 297.314L280.417 335.639L314.79 364.951L341.08 326.626Z" fill="#F0F0F0"/>
<path d="M146.817 64.963C152.248 64.9582 157.604 66.3715 162.457 69.0896C167.31 71.8077 171.525 75.7551 174.764 80.6158L194.835 51.3557L134.612 0L88.5519 67.1467L114.508 89.2809C117.105 82.0983 121.569 75.9453 127.326 71.6122C133.083 67.279 139.871 64.9635 146.817 64.963Z" fill="#F0F0F0"/>
<path d="M724.373 635H1.02457C0.752839 635 0.492234 634.88 0.30009 634.665C0.107945 634.451 0 634.161 0 633.858C0 633.555 0.107945 633.264 0.30009 633.05C0.492234 632.836 0.752839 632.715 1.02457 632.715H724.373C724.645 632.715 724.906 632.836 725.098 633.05C725.29 633.264 725.398 633.555 725.398 633.858C725.398 634.161 725.29 634.451 725.098 634.665C724.906 634.88 724.645 635 724.373 635Z" fill="#3F3D56"/>
<path d="M547.826 445.448H474.198C471.482 445.444 468.878 444.24 466.957 442.098C465.036 439.957 463.956 437.053 463.953 434.024V428.338C463.956 425.309 465.036 422.406 466.957 420.264C468.878 418.123 471.482 416.918 474.198 416.915H547.826C550.543 416.918 553.147 418.123 555.068 420.264C556.989 422.406 558.069 425.309 558.072 428.338V434.024C558.069 437.053 556.989 439.957 555.068 442.098C553.147 444.24 550.543 445.444 547.826 445.448Z" fill="#6C63FF"/>
<path d="M555.584 434.486H481.956C479.104 434.482 476.37 433.217 474.353 430.969C472.336 428.72 471.201 425.671 471.198 422.491V416.805C471.201 413.625 472.336 410.576 474.353 408.327C476.37 406.079 479.104 404.814 481.956 404.81H555.584C558.437 404.814 561.171 406.079 563.188 408.327C565.205 410.576 566.339 413.625 566.342 416.805V422.491C566.339 425.671 565.205 428.72 563.188 430.969C561.171 433.217 558.437 434.482 555.584 434.486ZM481.956 407.095C479.647 407.098 477.434 408.122 475.801 409.942C474.168 411.762 473.25 414.23 473.247 416.805V422.491C473.25 425.065 474.168 427.533 475.801 429.354C477.434 431.174 479.647 432.198 481.956 432.201H555.584C557.893 432.198 560.107 431.174 561.74 429.354C563.372 427.533 564.291 425.065 564.293 422.491V416.805C564.291 414.23 563.372 411.762 561.74 409.942C560.107 408.122 557.893 407.098 555.584 407.095H481.956Z" fill="#3F3D56"/>
</g>
<defs>
<clipPath id="clip0_73_640">
<rect width="725.398" height="635" fill="white"/>
</clipPath>
</defs>
</svg>
