<svg width="200" height="232" viewBox="0 0 200 232" fill="none" xmlns="http://www.w3.org/2000/svg">
<path d="M160.409 80.1609H140.677V73.8604C140.677 63.2995 149.519 54.7254 160.409 54.7254H160.409V80.1609V80.1609Z" fill="#2F2E41"/>
<path d="M156.035 68.3992L159.428 83.1971L139.548 79.9958L147.649 66.0007L156.035 68.3992Z" fill="#A0616A"/>
<path opacity="0.1" d="M156.035 68.3992L159.428 83.1971L139.548 79.9958L147.649 66.0007L156.035 68.3992Z" fill="black"/>
<path d="M136.976 127.366H156.035V100.011H136.976V127.366Z" fill="#A0616A"/>
<path d="M168.424 149.731L164.231 171.542C164.231 171.542 166.899 186.699 158.894 202.225L153.558 218.121L145.552 217.012C145.552 217.012 150.508 205.182 150.508 200.007C150.508 194.831 151.652 174.869 151.652 174.869L151.08 152.091L168.424 149.731Z" fill="#2F2E41"/>
<path d="M144.409 216.642C144.409 216.642 153.557 213.315 154.32 218.121L153.939 220.339C153.939 220.339 157.369 230.32 152.414 231.059C147.458 231.799 142.884 232.908 142.503 230.69C142.122 228.472 142.128 225.703 143.078 223.76C144.028 221.817 144.409 216.642 144.409 216.642Z" fill="#2F2E41"/>
<path d="M139.568 146.348L137.34 168.429C137.34 168.429 130.431 182.268 133.667 199.341L134.235 216.049L142.242 217.143C142.242 217.143 140.875 204.443 142.359 199.472C143.843 194.501 148.469 175.018 148.469 175.018L155.551 153.292L139.568 146.348V146.348Z" fill="#2F2E41"/>
<path d="M143.447 217.096C143.447 217.096 135.613 211.433 133.503 215.843L133.233 218.077C133.233 218.077 127.075 226.739 131.623 228.786C136.171 230.832 140.247 233.131 141.249 231.104C142.251 229.076 143.04 226.415 142.684 224.292C142.329 222.17 143.447 217.096 143.447 217.096V217.096Z" fill="#2F2E41"/>
<path d="M163.85 114.797C172.815 122.911 173.48 135.748 168.233 151.025C168.233 151.025 151.461 162.115 139.263 148.068L133.164 119.603L163.85 114.797Z" fill="#2F2E41"/>
<path d="M148.793 75.2425L158.322 76.7212L157.56 100.011L168.233 120.712L154.511 127.366C154.511 127.366 143.837 107.774 141.931 95.5745C140.025 83.3753 141.169 74.5032 141.169 74.5032L148.793 75.2425Z" fill="#6C63FF"/>
<path d="M141.55 75.9818L132.02 77.4605L132.783 100.75L130.495 122.191L135.832 128.106C135.832 128.106 146.505 108.513 148.411 96.3138C150.317 84.1146 149.174 75.2425 149.174 75.2425L141.55 75.9818Z" fill="#6C63FF"/>
<path d="M152.986 76.5363L155.082 75.9818C155.082 75.9818 162.515 75.0577 163.659 78.015C164.803 80.9724 164.421 98.347 164.421 98.347C164.421 98.347 166.388 119.672 158.734 119.915C151.08 120.158 152.604 102.413 152.604 102.413L152.986 76.5363Z" fill="#6C63FF"/>
<path d="M152.709 72.4603C158.157 72.4603 162.574 68.1768 162.574 62.8928C162.574 57.6088 158.157 53.3253 152.709 53.3253C147.26 53.3253 142.843 57.6088 142.843 62.8928C142.843 68.1768 147.26 72.4603 152.709 72.4603Z" fill="#A0616A"/>
<path d="M140.406 77.2757L138.31 76.7212C138.31 76.7212 130.877 75.797 129.733 78.7544C128.589 81.7118 128.971 99.0864 128.971 99.0864C128.971 99.0864 127.004 120.411 134.658 120.654C142.312 120.897 140.788 103.153 140.788 103.153L140.406 77.2757Z" fill="#6C63FF"/>
<path d="M147.01 76.0602C144.893 75.5395 142.494 77.7316 141.65 80.9578C141.294 82.2421 141.261 83.5902 141.553 84.8894L140.644 88.5567L140.577 88.5533L133.403 104.948C131.736 108.76 131.912 113.136 134.039 116.726C135.305 118.862 136.966 120.298 138.916 118.832C142.153 116.4 144.267 102.475 145.232 94.4753L147.464 86.344C148.36 85.3368 148.994 84.1361 149.313 82.8425C150.158 79.6175 149.126 76.581 147.01 76.0602V76.0602Z" fill="#A0616A"/>
<path d="M133.821 70.633C134.323 69.1533 135.314 67.8578 135.757 66.3606C136.345 64.3726 137.598 68.7828 137.721 66.7179C137.953 62.7933 144.13 52.6977 147.656 50.7584C151.182 48.8192 153.207 49.4039 156.799 51.2252C156.799 51.2252 158.543 51.3327 160.714 52.3721C162.885 53.4115 164.839 55.0762 165.684 57.2767C166.353 59.021 166.279 60.9364 166.503 62.7848C167.126 67.9343 170.102 72.8318 169.463 77.9795C169.264 79.5855 168.634 81.2463 167.28 82.1909C165.926 83.1356 163.739 83.0328 162.847 81.6655C162.543 81.1989 162.415 80.6453 162.154 80.1546C161.893 79.6638 161.422 79.2063 160.853 79.2216C159.998 79.2446 159.563 80.3575 159.9 81.12C160.237 81.8826 161.03 82.343 161.774 82.7525C160.002 83.5257 157.803 83.2849 156.254 82.1479C154.704 81.0109 153.867 79.0248 154.152 77.1607C154.554 74.5337 158.5 75.0774 158.965 72.4603C159.303 70.5551 160.492 67.3673 160.168 65.4597C159.844 63.5521 158.29 65.8618 159.928 64.7596C158.126 65.602 154.272 59.8394 152.385 59.1939C150.499 58.5485 148.9 57.1509 148.042 55.3984C146.041 58.211 144.282 57.4472 143.565 60.7926C142.848 64.1381 143.511 71.7385 146.461 73.6063C145.281 74.3876 144.339 75.5048 143.785 76.7826C143.472 77.5065 143.268 78.2985 142.747 78.8998C141.752 80.048 139.915 80.1179 138.451 79.6351C136.635 79.0364 135.083 77.7216 134.227 76.0574C133.371 74.3932 133.222 72.3996 133.821 70.633L133.821 70.633Z" fill="#2F2E41"/>
<path d="M0 231.465C0 231.709 0.202043 231.905 0.453641 231.905H199.546C199.798 231.905 200 231.709 200 231.465C200 231.221 199.798 231.025 199.546 231.025H0.453641C0.202043 231.025 0 231.221 0 231.465Z" fill="#3F3D56"/>
<path d="M129.62 0.36961H51.2203C42.3298 0.36961 35.1226 7.359 35.1226 15.9808V215.764C35.1226 224.386 42.3297 231.375 51.2202 231.375H129.62C138.51 231.375 145.717 224.386 145.717 215.764V15.9808C145.717 7.359 138.51 0.36961 129.62 0.36961H129.62Z" fill="white"/>
<path d="M129.62 231.745H51.2204C42.1339 231.745 34.7415 224.576 34.7415 215.764V15.9809C34.7415 7.16908 42.1339 0 51.2204 0H129.62C138.706 0 146.099 7.16908 146.099 15.9809V215.764C146.099 224.576 138.706 231.745 129.62 231.745H129.62ZM51.2204 0.739344C42.5542 0.739344 35.5038 7.57666 35.5038 15.9809V215.764C35.5038 224.168 42.5542 231.005 51.2204 231.005H129.62C138.286 231.005 145.336 224.168 145.336 215.764V15.9809C145.336 7.57665 138.286 0.739344 129.62 0.739344H51.2204Z" fill="#3F3D56"/>
<path d="M28.6442 34.9586C27.9559 34.9586 27.3962 35.5014 27.3962 36.1688V45.8511C27.3962 46.5186 27.9559 47.0614 28.6442 47.0614C29.3325 47.0614 29.8922 46.5186 29.8922 45.8511V36.1688C29.8922 35.5014 29.3325 34.9586 28.6442 34.9586Z" fill="#3F3D56"/>
<path d="M135.299 32.332H103.786C102.45 32.332 101.362 31.2774 101.362 29.9812C101.362 28.685 102.45 27.6304 103.786 27.6304H135.299C136.635 27.6304 137.723 28.685 137.723 29.9812C137.723 31.2774 136.635 32.332 135.299 32.332Z" fill="#E6E6E6"/>
<path d="M105.736 50.8183H75.1045C74.3322 50.8183 73.7039 50.2089 73.7039 49.46C73.7039 48.7111 74.3322 48.102 75.1045 48.102H105.736C106.508 48.102 107.136 48.7111 107.136 49.46C107.136 50.2089 106.508 50.8183 105.736 50.8183V50.8183Z" fill="#6C63FF"/>
<path d="M29.8559 57.5216C43.5189 57.5216 54.5949 47.0066 54.5949 34.0357C54.5949 21.0648 43.5189 10.5499 29.8559 10.5499C16.193 10.5499 5.11694 21.0648 5.11694 34.0357C5.11694 47.0066 16.193 57.5216 29.8559 57.5216Z" fill="#6C63FF"/>
<path d="M38.2523 22.1893C34.9588 28.0052 31.6652 33.8212 28.3717 39.6372C26.2726 36.0404 24.185 32.4373 22.0807 28.8434C21.354 27.6022 19.3773 28.7186 20.1059 29.9629C22.5452 34.1291 24.9592 38.3091 27.3985 42.4752C27.8155 43.1876 28.9606 43.2041 29.3734 42.4752C32.9913 36.0864 36.6093 29.6976 40.2272 23.3088C40.9362 22.0569 38.9618 20.9365 38.2523 22.1893H38.2523Z" fill="white"/>
<path d="M62.4414 5.41859H44.9532C44.8879 5.41859 44.835 5.46994 44.835 5.53327V7.50764C44.835 7.57098 44.8879 7.62232 44.9532 7.62232H62.4414C62.5067 7.62232 62.5597 7.57098 62.5597 7.50764V5.53327C62.5597 5.46994 62.5067 5.41859 62.4414 5.41859Z" fill="#E6E6E6"/>
<path d="M121.347 7.62231C122.351 7.62231 123.165 6.833 123.165 5.85934C123.165 4.88567 122.351 4.09636 121.347 4.09636C120.343 4.09636 119.529 4.88567 119.529 5.85934C119.529 6.833 120.343 7.62231 121.347 7.62231Z" fill="#E6E6E6"/>
<path d="M126.346 7.62231C127.35 7.62231 128.164 6.833 128.164 5.85934C128.164 4.88567 127.35 4.09636 126.346 4.09636C125.342 4.09636 124.529 4.88567 124.529 5.85934C124.529 6.833 125.342 7.62231 126.346 7.62231Z" fill="#E6E6E6"/>
<path d="M131.346 7.62231C132.35 7.62231 133.164 6.833 133.164 5.85934C133.164 4.88567 132.35 4.09636 131.346 4.09636C130.342 4.09636 129.528 4.88567 129.528 5.85934C129.528 6.833 130.342 7.62231 131.346 7.62231Z" fill="#E6E6E6"/>
<path d="M51.0295 58.0887C51.0295 58.3327 51.2316 58.5286 51.4832 58.5286H129.357C129.608 58.5286 129.811 58.3327 129.811 58.0887C129.811 57.8447 129.608 57.6488 129.357 57.6488H51.4832C51.2316 57.6488 51.0295 57.8447 51.0295 58.0887V58.0887Z" fill="#3F3D56"/>
<path d="M121.889 92.6644H75.1557C74.3835 92.6644 73.7551 92.0551 73.7551 91.3062C73.7551 90.5573 74.3835 89.9482 75.1557 89.9482H121.889C122.661 89.9482 123.289 90.5573 123.289 91.3062C123.289 92.0551 122.661 92.6644 121.889 92.6644Z" fill="#6C63FF"/>
<path d="M121.889 112.257H75.1557C74.3835 112.257 73.7551 111.648 73.7551 110.899C73.7551 110.15 74.3835 109.541 75.1557 109.541H121.889C122.661 109.541 123.289 110.15 123.289 110.899C123.289 111.648 122.661 112.257 121.889 112.257V112.257Z" fill="#6C63FF"/>
<path d="M121.889 131.85H75.1557C74.3835 131.85 73.7551 131.24 73.7551 130.491C73.7551 129.743 74.3835 129.133 75.1557 129.133H121.889C122.661 129.133 123.289 129.743 123.289 130.491C123.289 131.24 122.661 131.85 121.889 131.85V131.85Z" fill="#6C63FF"/>
<path d="M60.9813 94.4654C62.876 94.4654 64.412 92.9759 64.412 91.1384C64.412 89.3009 62.876 87.8113 60.9813 87.8113C59.0865 87.8113 57.5505 89.3009 57.5505 91.1384C57.5505 92.9759 59.0865 94.4654 60.9813 94.4654Z" fill="#6C63FF"/>
<path d="M60.6001 96.6835V95.9441C63.4376 95.9441 65.7462 93.7053 65.7462 90.9536C65.7462 88.2018 63.4376 85.963 60.6001 85.963V85.2236C63.8581 85.2236 66.5086 87.794 66.5086 90.9536C66.5086 94.1131 63.8581 96.6835 60.6001 96.6835Z" fill="#3F3D56"/>
<path d="M60.9813 114.058C62.876 114.058 64.412 112.568 64.412 110.731C64.412 108.894 62.876 107.404 60.9813 107.404C59.0865 107.404 57.5505 108.894 57.5505 110.731C57.5505 112.568 59.0865 114.058 60.9813 114.058Z" fill="#6C63FF"/>
<path d="M60.6001 116.276V115.537C63.4376 115.537 65.7462 113.298 65.7462 110.546C65.7462 107.794 63.4376 105.556 60.6001 105.556V104.816C63.8581 104.816 66.5086 107.387 66.5086 110.546C66.5086 113.706 63.8581 116.276 60.6001 116.276Z" fill="#3F3D56"/>
<path d="M60.9813 133.651C62.876 133.651 64.412 132.161 64.412 130.324C64.412 128.486 62.876 126.997 60.9813 126.997C59.0865 126.997 57.5505 128.486 57.5505 130.324C57.5505 132.161 59.0865 133.651 60.9813 133.651Z" fill="#6C63FF"/>
<path d="M60.6001 135.869V135.129C63.4376 135.129 65.7462 132.891 65.7462 130.139C65.7462 127.387 63.4376 125.148 60.6001 125.148V124.409C63.8581 124.409 66.5086 126.979 66.5086 130.139C66.5086 133.298 63.8581 135.869 60.6001 135.869Z" fill="#3F3D56"/>
<path d="M146.382 75.3209C148.499 74.8001 150.898 76.9923 151.742 80.2185C152.098 81.5028 152.131 82.8509 151.839 84.1501L152.748 87.8174L152.815 87.814L159.989 104.209C161.656 108.02 161.48 112.397 159.353 115.987C158.087 118.123 156.426 119.559 154.476 118.093C151.239 115.661 149.125 101.735 148.16 93.7359L145.928 85.6046C145.032 84.5974 144.398 83.3967 144.079 82.1031C143.234 78.8782 144.266 75.8416 146.382 75.3209V75.3209Z" fill="#A0616A"/>
<path d="M154.531 84.3048L146.505 89.8373L150.518 114.344L155.551 120.656L161.413 118.69L163.127 107.105L161.11 95.9014L154.531 84.3048Z" fill="#6C63FF"/>
</svg>
