<svg width="635" height="635" viewBox="0 0 635 635" fill="none" xmlns="http://www.w3.org/2000/svg">
<path d="M509.298 219.406H446.651V202.161C446.651 173.255 474.722 149.787 509.298 149.787H509.298V219.406V219.406Z" fill="#2F2E41"/>
<path d="M495.412 187.213L506.183 227.716L443.065 218.954L468.786 180.648L495.412 187.213Z" fill="#A0616A"/>
<path opacity="0.1" d="M495.412 187.213L506.183 227.716L443.065 218.954L468.786 180.648L495.412 187.213Z" fill="black"/>
<path d="M434.898 348.61H495.412V273.736H434.898V348.61Z" fill="#A0616A"/>
<path d="M534.746 409.825L521.433 469.523C521.433 469.523 529.905 511.007 504.489 553.504L487.545 597.012L462.129 593.976C462.129 593.976 477.863 561.598 477.863 547.433C477.863 533.267 481.493 478.629 481.493 478.629L479.678 416.283L534.746 409.825Z" fill="#2F2E41"/>
<path d="M458.498 592.964C458.498 592.964 487.545 583.858 489.965 597.012L488.755 603.082C488.755 603.082 499.648 630.402 483.914 632.425C468.18 634.449 453.657 637.484 452.447 631.413C451.236 625.342 451.255 617.764 454.272 612.447C457.288 607.13 458.498 592.964 458.498 592.964Z" fill="#2F2E41"/>
<path d="M443.127 400.565L436.056 461.003C436.056 461.003 414.118 498.881 424.394 545.61L426.196 591.341L451.619 594.335C451.619 594.335 447.277 559.576 451.99 545.969C456.702 532.363 471.39 479.036 471.39 479.036L493.874 419.571L443.127 400.565Z" fill="#2F2E41"/>
<path d="M455.444 594.207C455.444 594.207 430.572 578.706 423.871 590.778L423.014 596.891C423.014 596.891 403.463 620.6 417.903 626.202C432.343 631.804 445.284 638.096 448.466 632.546C451.648 626.996 454.151 619.712 453.022 613.904C451.894 608.095 455.444 594.207 455.444 594.207Z" fill="#2F2E41"/>
<path d="M520.223 314.208C548.687 336.415 550.799 371.552 534.141 413.367C534.141 413.367 480.888 443.721 442.159 405.272L422.795 327.362L520.223 314.208Z" fill="#2F2E41"/>
<path d="M472.416 205.944L502.673 209.991L500.253 273.736L534.141 330.398L490.571 348.61C490.571 348.61 456.683 294.984 450.631 261.594C444.58 228.204 448.211 203.92 448.211 203.92L472.416 205.944Z" fill="#6C63FF"/>
<path d="M449.421 207.967L419.164 212.015L421.584 275.759L414.323 334.445L431.267 350.634C431.267 350.634 465.155 297.007 471.206 263.617C477.258 230.227 473.627 205.944 473.627 205.944L449.421 207.967Z" fill="#6C63FF"/>
<path d="M485.73 209.485L492.386 207.967C492.386 207.967 515.987 205.438 519.618 213.532C523.249 221.627 522.038 269.182 522.038 269.182C522.038 269.182 528.283 327.549 503.981 328.215C479.678 328.88 484.519 280.312 484.519 280.312L485.73 209.485Z" fill="#6C63FF"/>
<path d="M484.85 198.329C502.149 198.329 516.173 186.605 516.173 172.142C516.173 157.679 502.149 145.955 484.85 145.955C467.551 145.955 453.527 157.679 453.527 172.142C453.527 186.605 467.551 198.329 484.85 198.329Z" fill="#A0616A"/>
<path d="M445.79 211.509L439.134 209.991C439.134 209.991 415.533 207.462 411.902 215.556C408.271 223.651 409.482 271.206 409.482 271.206C409.482 271.206 403.237 329.573 427.539 330.238C451.842 330.903 447 282.336 447 282.336L445.79 211.509Z" fill="#6C63FF"/>
<path d="M466.756 208.182C460.036 206.757 452.418 212.757 449.738 221.587C448.609 225.102 448.504 228.792 449.431 232.348L446.544 242.386L446.331 242.377L423.556 287.25C418.26 297.683 418.82 309.661 425.574 319.488C429.592 325.334 434.867 329.264 441.06 325.252C451.336 318.595 458.048 280.48 461.113 258.585L468.199 236.329C471.043 233.573 473.056 230.286 474.07 226.746C476.75 217.919 473.475 209.607 466.756 208.182V208.182Z" fill="#A0616A"/>
<path d="M424.882 193.327C426.475 189.277 429.621 185.731 431.028 181.633C432.896 176.192 436.874 188.263 437.263 182.612C438 171.869 457.611 144.237 468.806 138.929C480.002 133.622 486.432 135.222 497.838 140.207C497.838 140.207 503.374 140.501 510.267 143.346C517.16 146.191 523.364 150.747 526.045 156.77C528.17 161.544 527.935 166.787 528.645 171.846C530.623 185.941 540.074 199.346 538.045 213.435C537.413 217.831 535.414 222.377 531.115 224.962C526.816 227.548 519.87 227.266 517.04 223.524C516.074 222.247 515.666 220.732 514.839 219.389C514.011 218.045 512.516 216.793 510.709 216.835C507.994 216.898 506.611 219.944 507.682 222.031C508.753 224.118 511.269 225.378 513.632 226.499C508.005 228.615 501.025 227.956 496.105 224.844C491.184 221.732 488.527 216.296 489.433 211.194C490.708 204.004 503.238 205.492 504.714 198.329C505.788 193.114 509.561 184.389 508.534 179.168C507.506 173.947 502.57 180.268 507.77 177.252C502.049 179.557 489.812 163.784 483.823 162.018C477.834 160.251 472.756 156.426 470.033 151.629C463.681 159.327 458.094 157.237 455.819 166.394C453.544 175.55 455.647 196.353 465.014 201.466C461.266 203.604 458.277 206.662 456.518 210.159C455.522 212.141 454.876 214.308 453.222 215.954C450.063 219.097 444.231 219.288 439.582 217.967C433.817 216.328 428.889 212.729 426.171 208.174C423.454 203.619 422.98 198.163 424.882 193.327L424.882 193.327Z" fill="#2F2E41"/>
<path d="M0 633.536C0 634.203 0.641487 634.74 1.44031 634.74H633.56C634.359 634.74 635 634.203 635 633.536C635 632.868 634.359 632.332 633.56 632.332H1.44031C0.641487 632.332 0 632.868 0 633.536Z" fill="#3F3D56"/>
<path d="M411.542 1.01172H162.625C134.397 1.01172 111.514 20.1422 111.514 43.7408V590.561C111.514 614.159 134.397 633.29 162.624 633.29H411.542C439.77 633.29 462.653 614.159 462.653 590.561V43.7408C462.653 20.1422 439.77 1.01172 411.542 1.01172H411.542Z" fill="white"/>
<path d="M411.543 634.301H162.625C133.775 634.301 110.304 614.679 110.304 590.561V43.7409C110.304 19.6223 133.775 0 162.625 0H411.543C440.392 0 463.863 19.6223 463.863 43.7409V590.561C463.863 614.679 440.392 634.301 411.543 634.301H411.543ZM162.625 2.02364C135.11 2.02364 112.725 20.7378 112.725 43.7409V590.561C112.725 613.564 135.11 632.277 162.625 632.277H411.543C439.058 632.277 461.443 613.564 461.443 590.561V43.7409C461.443 20.7378 439.058 2.02364 411.543 2.02364H162.625Z" fill="#3F3D56"/>
<path d="M90.9453 95.6841C88.76 95.6841 86.9829 97.1697 86.9829 98.9967V125.498C86.9829 127.325 88.76 128.81 90.9453 128.81C93.1306 128.81 94.9077 127.325 94.9077 125.498V98.9967C94.9077 97.1697 93.1306 95.6841 90.9453 95.6841Z" fill="#3F3D56"/>
<path d="M429.573 88.4949H329.521C325.278 88.4949 321.825 85.6085 321.825 82.0607C321.825 78.5129 325.278 75.6265 329.521 75.6265H429.573C433.817 75.6265 437.269 78.5129 437.269 82.0607C437.269 85.6085 433.817 88.4949 429.573 88.4949Z" fill="#E6E6E6"/>
<path d="M335.711 139.093H238.456C236.005 139.093 234.01 137.425 234.01 135.375C234.01 133.326 236.005 131.658 238.456 131.658H335.711C338.163 131.658 340.157 133.326 340.157 135.375C340.157 137.425 338.163 139.093 335.711 139.093Z" fill="#6C63FF"/>
<path d="M94.7924 157.441C138.172 157.441 173.339 128.66 173.339 93.1581C173.339 57.6559 138.172 28.8757 94.7924 28.8757C51.4125 28.8757 16.2461 57.6559 16.2461 93.1581C16.2461 128.66 51.4125 157.441 94.7924 157.441Z" fill="#6C63FF"/>
<path d="M121.451 60.7338C110.994 76.6524 100.537 92.5711 90.08 108.49C83.4154 98.6452 76.7872 88.7833 70.1062 78.9465C67.7989 75.5492 61.5228 78.6049 63.836 82.0106C71.5807 93.4137 79.2452 104.855 86.99 116.258C88.3142 118.208 91.9497 118.253 93.2603 116.258C104.747 98.7711 116.234 81.2845 127.721 63.7979C129.972 60.3714 123.704 57.3046 121.451 60.7338H121.451Z" fill="white"/>
<path d="M198.251 14.8311H142.726C142.519 14.8311 142.351 14.9716 142.351 15.1449V20.5489C142.351 20.7223 142.519 20.8628 142.726 20.8628H198.251C198.459 20.8628 198.627 20.7223 198.627 20.5489V15.1449C198.627 14.9716 198.459 14.8311 198.251 14.8311Z" fill="#E6E6E6"/>
<path d="M385.277 20.8627C388.465 20.8627 391.049 18.7023 391.049 16.0373C391.049 13.3723 388.465 11.2119 385.277 11.2119C382.09 11.2119 379.506 13.3723 379.506 16.0373C379.506 18.7023 382.09 20.8627 385.277 20.8627Z" fill="#E6E6E6"/>
<path d="M401.15 20.8627C404.338 20.8627 406.922 18.7023 406.922 16.0373C406.922 13.3723 404.338 11.2119 401.15 11.2119C397.963 11.2119 395.378 13.3723 395.378 16.0373C395.378 18.7023 397.963 20.8627 401.15 20.8627Z" fill="#E6E6E6"/>
<path d="M417.023 20.8627C420.211 20.8627 422.795 18.7023 422.795 16.0373C422.795 13.3723 420.211 11.2119 417.023 11.2119C413.835 11.2119 411.251 13.3723 411.251 16.0373C411.251 18.7023 413.835 20.8627 417.023 20.8627Z" fill="#E6E6E6"/>
<path d="M162.019 158.993C162.019 159.661 162.66 160.197 163.459 160.197H410.708C411.507 160.197 412.148 159.661 412.148 158.993C412.148 158.325 411.507 157.789 410.708 157.789H163.459C162.66 157.789 162.019 158.325 162.019 158.993Z" fill="#3F3D56"/>
<path d="M386.998 253.629H238.619C236.167 253.629 234.172 251.961 234.172 249.911C234.172 247.861 236.167 246.194 238.619 246.194H386.998C389.45 246.194 391.444 247.861 391.444 249.911C391.444 251.961 389.45 253.629 386.998 253.629Z" fill="#6C63FF"/>
<path d="M386.998 307.255H238.619C236.167 307.255 234.172 305.588 234.172 303.538C234.172 301.488 236.167 299.821 238.619 299.821H386.998C389.45 299.821 391.444 301.488 391.444 303.538C391.444 305.588 389.45 307.255 386.998 307.255Z" fill="#6C63FF"/>
<path d="M386.998 360.882H238.619C236.167 360.882 234.172 359.214 234.172 357.164C234.172 355.114 236.167 353.447 238.619 353.447H386.998C389.45 353.447 391.444 355.114 391.444 357.164C391.444 359.214 389.45 360.882 386.998 360.882Z" fill="#6C63FF"/>
<path d="M193.615 258.558C199.631 258.558 204.508 254.481 204.508 249.452C204.508 244.423 199.631 240.346 193.615 240.346C187.6 240.346 182.723 244.423 182.723 249.452C182.723 254.481 187.6 258.558 193.615 258.558Z" fill="#6C63FF"/>
<path d="M192.405 264.629V262.606C201.414 262.606 208.744 256.478 208.744 248.946C208.744 241.414 201.414 235.287 192.405 235.287V233.263C202.749 233.263 211.164 240.298 211.164 248.946C211.164 257.594 202.749 264.629 192.405 264.629Z" fill="#3F3D56"/>
<path d="M193.615 312.185C199.631 312.185 204.508 308.108 204.508 303.079C204.508 298.049 199.631 293.972 193.615 293.972C187.6 293.972 182.723 298.049 182.723 303.079C182.723 308.108 187.6 312.185 193.615 312.185Z" fill="#6C63FF"/>
<path d="M192.405 318.256V316.232C201.414 316.232 208.744 310.105 208.744 302.573C208.744 295.041 201.414 288.913 192.405 288.913V286.889C202.749 286.889 211.164 293.925 211.164 302.573C211.164 311.22 202.749 318.256 192.405 318.256Z" fill="#3F3D56"/>
<path d="M193.615 365.811C199.631 365.811 204.508 361.734 204.508 356.705C204.508 351.675 199.631 347.598 193.615 347.598C187.6 347.598 182.723 351.675 182.723 356.705C182.723 361.734 187.6 365.811 193.615 365.811Z" fill="#6C63FF"/>
<path d="M192.405 371.882V369.858C201.414 369.858 208.744 363.731 208.744 356.199C208.744 348.666 201.414 342.539 192.405 342.539V340.516C202.749 340.516 211.164 347.551 211.164 356.199C211.164 364.847 202.749 371.882 192.405 371.882Z" fill="#3F3D56"/>
<path d="M464.764 206.158C471.484 204.733 479.102 210.733 481.782 219.564C482.911 223.079 483.016 226.769 482.089 230.325L484.976 240.362L485.189 240.353L507.964 285.226C513.26 295.659 512.7 307.637 505.946 317.464C501.928 323.31 496.653 327.24 490.46 323.229C480.184 316.572 473.471 278.456 470.407 256.562L463.321 234.306C460.476 231.549 458.463 228.263 457.45 224.722C454.769 215.895 458.044 207.584 464.764 206.158V206.158Z" fill="#A0616A"/>
<path d="M490.636 230.748L465.155 245.891L477.895 312.968L493.874 330.245L512.488 324.863L517.93 293.154L511.525 262.489L490.636 230.748Z" fill="#6C63FF"/>
</svg>
