<svg width="669" height="598" viewBox="0 0 669 598" fill="none" xmlns="http://www.w3.org/2000/svg">
<path d="M625.989 325.807L147.193 530.736C143.923 532.132 140.233 532.172 136.933 530.849C133.633 529.526 130.993 526.948 129.591 523.679L3.28401 228.311C2.26227 225.915 2.23251 223.21 3.20126 220.792C4.17 218.373 6.05814 216.438 8.45144 215.41L493.685 7.72612C496.122 6.68631 498.872 6.6561 501.331 7.64212C503.79 8.62814 505.758 10.5499 506.803 12.9857L633.043 308.197C634.438 311.469 634.478 315.16 633.156 318.462C631.833 321.763 629.256 324.405 625.989 325.807Z" fill="#F2F2F2"/>
<path d="M603.85 316.862L157.624 507.85C151.083 510.65 143.629 507.942 141.009 501.814L31.0194 244.604C29.0759 240.059 31.4381 234.674 36.2853 232.599L488.51 39.0428C493.438 36.9338 499.054 38.9765 501.029 43.5961L610.961 300.671C613.581 306.798 610.391 314.062 603.85 316.862Z" fill="white"/>
<path d="M507.222 14.4397L3.76844 229.922L1.08335 223.643C-0.314848 220.36 -0.354374 216.657 0.973432 213.345C2.30124 210.033 4.88795 207.383 8.16607 205.977L486.874 1.08566C490.155 -0.315212 493.857 -0.357061 497.168 0.969291C500.479 2.29564 503.129 4.88188 504.537 8.16062L507.222 14.4397Z" fill="#6C63FF"/>
<path d="M22.2743 214.475C24.1968 214.475 25.7552 212.916 25.7552 210.992C25.7552 209.069 24.1968 207.51 22.2743 207.51C20.3519 207.51 18.7935 209.069 18.7935 210.992C18.7935 212.916 20.3519 214.475 22.2743 214.475Z" fill="white"/>
<path d="M34.4218 209.275C36.3443 209.275 37.9027 207.716 37.9027 205.793C37.9027 203.87 36.3443 202.311 34.4218 202.311C32.4994 202.311 30.9409 203.87 30.9409 205.793C30.9409 207.716 32.4994 209.275 34.4218 209.275Z" fill="white"/>
<path d="M46.5698 204.076C48.4922 204.076 50.0507 202.517 50.0507 200.594C50.0507 198.67 48.4922 197.111 46.5698 197.111C44.6473 197.111 43.0889 198.67 43.0889 200.594C43.0889 202.517 44.6473 204.076 46.5698 204.076Z" fill="white"/>
<path d="M246.953 295.754L187.444 321.224C184.174 322.619 180.484 322.66 177.184 321.337C173.884 320.014 171.244 317.435 169.842 314.167L136.992 237.348C135.597 234.076 135.557 230.385 136.879 227.084C138.202 223.783 140.779 221.141 144.046 219.738L203.555 194.268C206.825 192.873 210.514 192.832 213.814 194.155C217.114 195.478 219.754 198.057 221.157 201.325L254.006 278.144C255.401 281.415 255.441 285.107 254.119 288.408C252.797 291.709 250.219 294.351 246.953 295.754Z" fill="#F2F2F2"/>
<path d="M347.646 252.656L288.137 278.126C284.867 279.522 281.177 279.562 277.878 278.239C274.578 276.916 271.937 274.338 270.535 271.07L237.685 194.25C236.291 190.979 236.25 187.288 237.573 183.986C238.895 180.685 241.472 178.043 244.739 176.641L304.248 151.17C307.518 149.775 311.208 149.735 314.507 151.057C317.807 152.38 320.448 154.959 321.85 158.227L354.7 235.046C356.094 238.318 356.135 242.009 354.812 245.31C353.49 248.612 350.913 251.253 347.646 252.656Z" fill="#F2F2F2"/>
<path d="M448.34 209.558L388.83 235.029C385.56 236.424 381.871 236.465 378.571 235.142C375.271 233.819 372.631 231.24 371.229 227.972L338.379 151.153C336.984 147.881 336.944 144.19 338.266 140.889C339.588 137.587 342.166 134.946 345.432 133.543L404.942 108.073C408.212 106.677 411.901 106.637 415.201 107.96C418.501 109.283 421.141 111.861 422.543 115.129L455.393 191.949C456.788 195.22 456.828 198.911 455.506 202.213C454.184 205.514 451.606 208.156 448.34 209.558Z" fill="#F2F2F2"/>
<path d="M297.775 414.602L238.266 440.073C234.996 441.468 231.307 441.508 228.007 440.185C224.707 438.862 222.066 436.284 220.664 433.016L187.814 356.197C186.42 352.925 186.379 349.234 187.702 345.933C189.024 342.631 191.601 339.989 194.868 338.587L254.377 313.116C257.647 311.721 261.337 311.681 264.637 313.004C267.936 314.327 270.577 316.905 271.979 320.173L304.829 396.993C306.223 400.264 306.264 403.955 304.942 407.257C303.619 410.558 301.042 413.2 297.775 414.602Z" fill="#F2F2F2"/>
<path d="M398.469 371.505L338.96 396.975C335.69 398.37 332 398.411 328.7 397.088C325.4 395.765 322.76 393.186 321.358 389.918L288.508 313.099C287.113 309.828 287.073 306.136 288.395 302.835C289.718 299.534 292.295 296.892 295.562 295.489L355.071 270.019C358.341 268.624 362.03 268.583 365.33 269.906C368.63 271.229 371.27 273.808 372.672 277.076L405.522 353.895C406.917 357.166 406.957 360.858 405.635 364.159C404.313 367.46 401.735 370.102 398.469 371.505Z" fill="#F2F2F2"/>
<path d="M499.162 328.407L439.653 353.877C436.383 355.273 432.693 355.313 429.393 353.99C426.094 352.667 423.453 350.089 422.051 346.821L389.201 270.001C387.807 266.73 387.766 263.039 389.089 259.737C390.411 256.436 392.988 253.794 396.255 252.392L455.764 226.921C459.034 225.526 462.724 225.486 466.024 226.808C469.323 228.131 471.964 230.71 473.366 233.978L506.216 310.797C507.61 314.069 507.651 317.76 506.328 321.061C505.006 324.363 502.429 327.004 499.162 328.407Z" fill="#F2F2F2"/>
<path d="M655.591 598H134.818C131.263 597.996 127.855 596.581 125.341 594.066C122.828 591.551 121.414 588.142 121.41 584.585V263.322C121.413 260.717 122.448 258.218 124.29 256.376C126.132 254.534 128.628 253.497 131.233 253.494H659.007C661.656 253.497 664.196 254.551 666.07 256.426C667.943 258.3 668.997 260.841 669 263.492V584.585C668.996 588.142 667.582 591.551 665.068 594.066C662.554 596.581 659.146 597.996 655.591 598Z" fill="#E6E6E6"/>
<path d="M638.754 581.063H153.407C146.292 581.063 140.504 575.641 140.504 568.975V289.215C140.504 284.272 144.793 280.25 150.065 280.25H641.937C647.296 280.25 651.657 284.339 651.657 289.363V568.975C651.656 575.641 645.868 581.063 638.754 581.063Z" fill="white"/>
<path d="M668.813 264.994H121.222V258.165C121.227 254.596 122.647 251.176 125.169 248.653C127.692 246.131 131.112 244.712 134.679 244.709H655.356C658.923 244.712 662.343 246.131 664.866 248.653C667.389 251.176 668.808 254.596 668.813 258.165V264.994Z" fill="#6C63FF"/>
<path d="M145.678 258.355C147.601 258.355 149.159 256.795 149.159 254.872C149.159 252.949 147.601 251.39 145.678 251.39C143.756 251.39 142.197 252.949 142.197 254.872C142.197 256.795 143.756 258.355 145.678 258.355Z" fill="white"/>
<path d="M158.891 258.355C160.814 258.355 162.372 256.795 162.372 254.872C162.372 252.949 160.814 251.39 158.891 251.39C156.969 251.39 155.41 252.949 155.41 254.872C155.41 256.795 156.969 258.355 158.891 258.355Z" fill="white"/>
<path d="M172.103 258.355C174.026 258.355 175.584 256.795 175.584 254.872C175.584 252.949 174.026 251.39 172.103 251.39C170.181 251.39 168.623 252.949 168.623 254.872C168.623 256.795 170.181 258.355 172.103 258.355Z" fill="white"/>
<path d="M612.48 358.785H382.525C373.318 358.785 365.854 366.252 365.854 375.462V375.463C365.854 384.673 373.318 392.14 382.525 392.14H612.48C621.687 392.14 629.151 384.673 629.151 375.462C629.151 366.252 621.687 358.785 612.48 358.785Z" fill="#E6E6E6"/>
<path d="M612.48 413.979H382.525C373.318 413.979 365.854 421.446 365.854 430.657V430.657C365.854 439.868 373.318 447.335 382.525 447.335H612.48C621.687 447.335 629.151 439.868 629.151 430.657C629.151 421.446 621.687 413.979 612.48 413.979Z" fill="#E6E6E6"/>
<path d="M612.48 469.173H382.525C373.318 469.173 365.854 476.64 365.854 485.851V485.851C365.854 495.062 373.318 502.529 382.525 502.529H612.48C621.687 502.529 629.151 495.062 629.151 485.851C629.151 476.64 621.687 469.173 612.48 469.173Z" fill="#E6E6E6"/>
<path d="M344.229 430.657C344.229 448.345 338.987 465.635 329.164 480.342C319.342 495.049 305.381 506.511 289.047 513.28C272.713 520.049 254.739 521.82 237.399 518.369C220.059 514.919 204.131 506.401 191.63 493.894C179.128 481.387 170.615 465.452 167.165 448.104C163.716 430.756 165.486 412.775 172.252 396.433C179.018 380.092 190.475 366.125 205.176 356.298C219.876 346.471 237.159 341.226 254.839 341.226C278.544 341.234 301.277 350.658 318.039 367.428C334.801 384.198 344.222 406.941 344.229 430.657Z" fill="white"/>
<path d="M296.153 445.959C295.177 503.155 210.137 503.146 209.169 445.957C210.146 388.763 295.185 388.772 296.153 445.959Z" fill="#6C63FF"/>
<path d="M250.935 463.712L250.89 462.086C262.092 463.582 264.504 449.693 253.207 454.886L255.786 436.032L257.396 436.252L255.202 452.29C267.097 450.519 262.698 465.337 250.935 463.712Z" fill="#2F2E41"/>
<path d="M274.113 437.636H265.359V439.262H274.113V437.636Z" fill="#2F2E41"/>
<path d="M246.483 437.636H237.729V439.262H246.483V437.636Z" fill="#2F2E41"/>
<path d="M266.76 506.795C268.467 495.275 254.985 497.551 247.85 497.437C246.699 497.441 245.564 497.701 244.527 498.199C243.49 498.697 242.577 499.42 241.854 500.316C241.132 501.212 240.618 502.257 240.351 503.377C240.084 504.496 240.069 505.661 240.309 506.787C234.786 508.495 229.672 511.317 225.283 515.079C243.781 521.533 263.881 521.755 282.517 515.714C277.974 511.632 272.597 508.589 266.76 506.795Z" fill="#2F2E41"/>
<path d="M232.214 425.379C240.274 420.719 250.049 424.294 258.374 426.249C274.171 431.107 296.322 425.024 298.243 406.198C300.242 388.69 276.302 378.932 268.651 396.358L270.879 396.067C246.063 359.171 202.897 360.57 203.181 411.295C203.089 412.862 205.527 412.857 205.619 411.294C204.705 381.403 224.479 360.97 252.431 380.179C258.828 384.849 264.004 391.033 268.774 397.298C271.685 400.561 272.317 386.505 286.25 390.187C301.584 396.13 296.581 418.096 282.875 422.919C265.941 431.574 247.6 414.792 230.983 423.272C230.716 423.441 230.524 423.708 230.449 424.015C230.374 424.323 230.422 424.647 230.581 424.92C230.741 425.194 231 425.394 231.305 425.48C231.609 425.566 231.935 425.529 232.214 425.379V425.379Z" fill="#2F2E41"/>
<path d="M254.839 522.527C231.754 522.507 209.525 513.783 192.585 498.094C175.646 482.405 165.24 460.904 163.443 437.879C161.646 414.854 168.591 391.998 182.891 373.869C197.192 355.739 217.798 343.669 240.6 340.066C263.401 336.462 286.723 341.59 305.913 354.427C325.103 367.263 338.752 386.865 344.136 409.323C349.521 431.78 346.246 455.443 334.965 475.593C323.684 495.742 305.225 510.896 283.271 518.033C274.089 521.021 264.493 522.537 254.839 522.527ZM254.839 343.665C237.637 343.663 220.822 348.764 206.519 358.323C192.215 367.882 181.067 381.47 174.483 397.368C167.899 413.267 166.176 430.762 169.531 447.64C172.887 464.518 181.169 480.022 193.333 492.19C205.496 504.359 220.992 512.646 237.863 516.002C254.734 519.359 272.221 517.635 288.112 511.048C304.003 504.462 317.585 493.308 327.14 478.998C336.695 464.689 341.794 447.866 341.791 430.657C341.765 407.593 332.596 385.482 316.295 369.173C299.993 352.865 277.892 343.691 254.839 343.665Z" fill="#3F3D56"/>
</svg>
