<svg width="400" height="400" viewBox="0 0 400 400" fill="none" xmlns="http://www.w3.org/2000/svg">
<g clip-path="url(#clip0_588_143)">
<path d="M26.919 301.422C25.0196 301.422 23.1163 301.538 21.2576 301.772L20.9871 301.805C8.65818 303.417 -0.359851 312.767 0.0110355 323.555L0.0827364 325.505C0.13002 326.738 0.180398 328.064 0.221865 329.535C0.244324 330.26 0.91366 330.817 1.74652 330.817H305.008C326.39 330.625 347.693 330.383 368.325 330.098C372.194 330.11 376.061 329.814 379.909 329.211C385.642 328.207 389.622 326.219 392.076 323.13H392.076C395.128 319.301 395.224 314.478 395.04 309.03C394.664 298.028 394.291 286.47 393.919 274.948C393.59 264.793 393.263 254.665 392.936 244.968C392.734 239.214 392.284 234.135 388.819 230.253C385.062 226.055 378.212 223.927 368.457 223.927C368.339 223.927 368.222 223.927 368.103 223.927C337.533 224.088 307.242 239.632 292.73 262.605C291.058 265.251 289.501 268.083 287.995 270.822C285.77 274.869 283.469 279.053 280.724 282.794C279.237 284.848 277.63 286.701 275.92 288.331C275.803 288.451 275.668 288.58 275.525 288.703C275.199 289.017 274.858 289.32 274.525 289.59C272.578 291.253 270.527 292.632 268.4 293.709L268.185 293.815C268.023 293.901 267.848 293.986 267.673 294.064C266.444 294.647 265.168 295.152 263.89 295.559C258.358 297.362 252.067 297.794 245.194 296.843C238.882 295.945 232.651 294.068 226.605 291.241C220.24 288.267 214.282 284.558 208.521 280.972C205.99 279.396 203.373 277.767 200.759 276.224C200.267 275.933 199.784 275.649 199.293 275.365C196.101 273.525 193.206 272.006 190.444 270.72C183.602 267.521 176.52 265.581 169.357 264.944C161.753 264.329 155.053 265.49 149.447 268.387C147.901 269.183 146.396 270.141 144.944 271.256C138.303 276.355 134.21 283.881 130.251 291.158C125.327 300.211 120.235 309.572 110.18 314.425C98.5777 320.03 81.6423 317.702 69.6606 313.652C65.8936 312.379 62.1312 310.914 58.4924 309.497C57.0228 308.924 55.5522 308.356 54.0805 307.791C51.1885 306.687 48.8217 305.841 46.632 305.127L45.9395 304.9C45.5542 304.776 45.1686 304.652 44.776 304.534C42.1752 303.727 39.7533 303.091 37.3683 302.592L36.804 302.47C35.6727 302.249 34.6151 302.066 33.5772 301.912L33.1629 301.851C31.1302 301.565 29.0266 301.422 26.919 301.422Z" fill="#F2F2F2"/>
<path d="M340.509 313.462C349.043 302.091 361.735 296.374 372.382 302.75C361.46 311.716 353.036 326.105 348.599 343.371C346.904 350.039 345.488 357.717 341.319 361.287C338.725 363.508 335.498 363.616 332.59 362.544C329.681 361.472 327.015 359.322 324.386 357.194L323.638 357.169C326.996 340.926 331.976 324.832 340.509 313.462Z" fill="#E6E6E6"/>
<path d="M372.322 303.095C362.892 304.897 354.087 311.046 347.155 320.67C345.638 322.702 344.348 325.076 343.33 327.703C342.395 330.309 341.949 333.238 342.039 336.185C342.085 338.936 342.348 341.741 341.941 344.461C341.718 345.848 341.3 347.15 340.714 348.282C340.127 349.413 339.386 350.349 338.538 351.027C336.454 352.798 334.064 353.356 331.715 353.782C329.106 354.255 326.391 354.685 324.133 356.849C323.859 357.111 323.6 356.468 323.873 356.206C327.802 352.442 332.774 353.811 336.999 351.299C338.97 350.126 340.715 348.068 341.332 344.957C341.872 342.236 341.603 339.343 341.54 336.558C341.424 333.685 341.786 330.813 342.594 328.194C343.517 325.499 344.744 323.056 346.222 320.97C349.498 316.194 353.262 312.21 357.375 309.164C362.056 305.648 367.11 303.342 372.317 302.346C372.639 302.285 372.642 303.034 372.322 303.095H372.322Z" fill="white"/>
<path d="M349.264 317.377C348.33 315.438 347.892 313.071 348.03 310.7C348.167 308.328 348.869 306.105 350.012 304.429C350.244 304.091 350.61 304.608 350.378 304.947C349.312 306.505 348.657 308.575 348.533 310.784C348.408 312.993 348.822 315.195 349.699 316.993C349.889 317.384 349.453 317.766 349.264 317.377V317.377Z" fill="white"/>
<path d="M341.891 334.795C345.131 335.644 348.469 334.656 351.239 332.028C351.513 331.767 351.772 332.41 351.498 332.671C348.613 335.398 345.138 336.416 341.767 335.521C341.446 335.436 341.572 334.71 341.891 334.795Z" fill="white"/>
<path d="M362.097 306.639C362.353 307.5 362.749 308.254 363.251 308.833C363.752 309.412 364.343 309.798 364.971 309.956C365.292 310.035 365.166 310.761 364.847 310.682C364.154 310.503 363.502 310.075 362.947 309.438C362.392 308.8 361.951 307.97 361.663 307.022C361.63 306.937 361.622 306.836 361.638 306.74C361.654 306.645 361.694 306.562 361.75 306.509C361.808 306.459 361.877 306.444 361.942 306.468C362.007 306.493 362.063 306.554 362.097 306.639Z" fill="white"/>
<path d="M384.105 357.584C383.903 357.542 383.701 357.501 383.496 357.465C380.78 356.931 378.039 356.726 375.3 356.849C375.088 356.853 374.873 356.863 374.662 356.876C368.066 357.277 361.577 359.486 355.526 363.39C353.119 364.946 350.796 366.771 348.576 368.849C345.511 371.719 342.342 375.192 338.915 376.362C338.559 376.49 338.197 376.585 337.832 376.647L323.675 358.52C323.656 358.455 323.635 358.395 323.617 358.329L323.029 357.644C323.139 357.525 323.254 357.405 323.363 357.286C323.427 357.217 323.493 357.151 323.556 357.082C323.599 357.037 323.643 356.992 323.68 356.948C323.694 356.933 323.709 356.918 323.72 356.907C323.758 356.863 323.795 356.828 323.83 356.789C324.473 356.116 325.12 355.448 325.771 354.786C325.774 354.781 325.774 354.781 325.78 354.78C330.711 349.666 336.034 345.434 341.639 342.175C341.807 342.081 341.978 341.982 342.153 341.896C344.677 340.508 347.273 339.428 349.917 338.666C351.365 338.255 352.826 337.953 354.295 337.761C358.091 337.276 361.915 337.677 365.627 338.948C373.026 341.485 379.795 347.493 383.803 356.863C383.906 357.103 384.005 357.339 384.105 357.584Z" fill="#E6E6E6"/>
<path d="M383.918 357.808C375.656 350.852 366.121 347.923 356.668 349.436C354.63 349.708 352.633 350.454 350.751 351.646C348.943 352.894 347.395 354.836 346.266 357.269C345.183 359.506 344.25 361.98 342.818 363.789C342.076 364.699 341.212 365.366 340.283 365.748C339.354 366.129 338.381 366.216 337.427 366.002C335.043 365.561 332.907 363.88 330.858 362.128C328.582 360.183 326.239 358.109 323.555 357.826C323.23 357.792 323.285 357.048 323.61 357.082C328.28 357.574 331.692 363.094 336.088 364.849C338.139 365.668 340.37 365.578 342.13 363.643C343.669 361.952 344.632 359.402 345.716 357.123C346.793 354.725 348.251 352.755 349.962 351.383C351.797 350.053 353.771 349.195 355.801 348.844C360.361 347.948 364.988 348.118 369.513 349.347C374.682 350.708 379.656 353.366 384.219 357.206C384.501 357.444 384.199 358.045 383.918 357.808V357.808Z" fill="white"/>
<path d="M359.692 348.684C359.736 346.305 360.35 344.025 361.425 342.254C362.501 340.482 363.967 339.333 365.562 339.012C365.885 338.949 365.966 339.688 365.643 339.751C364.157 340.046 362.792 341.116 361.793 342.769C360.794 344.422 360.227 346.549 360.196 348.765C360.188 349.246 359.685 349.163 359.692 348.684V348.684Z" fill="white"/>
<path d="M346.714 356.028C348.955 359.591 352.023 361.773 355.304 362.14C355.629 362.176 355.574 362.92 355.249 362.884C351.835 362.493 348.646 360.212 346.319 356.497C346.098 356.143 346.493 355.676 346.714 356.028H346.714Z" fill="white"/>
<path d="M374.312 351.536C374.165 352.451 374.174 353.406 374.339 354.315C374.504 355.224 374.818 356.058 375.255 356.742C375.48 357.092 375.084 357.559 374.861 357.211C374.381 356.452 374.034 355.53 373.85 354.527C373.667 353.523 373.652 352.469 373.808 351.455C373.817 351.358 373.851 351.269 373.903 351.208C373.955 351.146 374.021 351.116 374.087 351.123C374.154 351.134 374.215 351.184 374.257 351.261C374.299 351.338 374.318 351.437 374.312 351.536Z" fill="white"/>
<path d="M117.127 324.77C124.115 309.099 136.614 297.763 149.2 300.202C139.207 314.284 132.904 333.139 131.406 353.431C130.848 361.26 130.779 370.054 126.991 375.587C124.635 379.03 121.204 380.474 117.892 380.523C114.579 380.573 111.323 379.37 108.11 378.176L107.306 378.457C107.842 359.703 110.14 340.441 117.127 324.77Z" fill="#E6E6E6"/>
<path d="M149.202 300.596C139.456 306.402 131.195 316.601 125.592 329.745C124.352 332.543 123.418 335.612 122.824 338.84C122.315 342.013 122.389 345.329 123.039 348.444C123.606 351.367 124.414 354.26 124.491 357.335C124.514 358.911 124.312 360.475 123.898 361.927C123.483 363.379 122.866 364.684 122.086 365.758C120.191 368.51 117.74 370.09 115.307 371.512C112.606 373.091 109.783 374.668 107.775 377.911C107.532 378.304 107.134 377.723 107.377 377.33C110.871 371.687 116.446 371.107 120.492 366.682C122.38 364.617 123.858 361.698 123.933 358.117C123.999 354.984 123.166 352 122.575 349.048C121.911 346.023 121.758 342.803 122.129 339.67C122.609 336.407 123.462 333.29 124.65 330.45C127.256 323.995 130.531 318.186 134.357 313.235C138.703 307.549 143.674 303.004 149.056 299.797C149.389 299.599 149.533 300.399 149.202 300.596L149.202 300.596Z" fill="white"/>
<path d="M127.228 325.356C125.864 323.667 124.951 321.316 124.651 318.722C124.351 316.129 124.685 313.463 125.592 311.2C125.777 310.743 126.265 311.146 126.081 311.603C125.233 313.708 124.923 316.192 125.205 318.606C125.488 321.02 126.344 323.205 127.62 324.767C127.897 325.107 127.503 325.694 127.228 325.356Z" fill="white"/>
<path d="M122.62 347.018C126.245 346.593 129.629 344.163 132.096 340.213C132.34 339.821 132.739 340.403 132.495 340.794C129.922 344.897 126.397 347.416 122.624 347.846C122.264 347.886 122.262 347.059 122.619 347.018H122.62Z" fill="white"/>
<path d="M138.933 308.592C139.369 309.408 139.935 310.052 140.58 310.464C141.225 310.877 141.93 311.047 142.63 310.958C142.99 310.91 142.991 311.738 142.635 311.785C141.86 311.878 141.082 311.69 140.369 311.236C139.655 310.782 139.027 310.076 138.541 309.181C138.49 309.102 138.461 308.998 138.461 308.889C138.46 308.781 138.488 308.676 138.538 308.596C138.59 308.518 138.661 308.474 138.735 308.474C138.809 308.473 138.88 308.515 138.933 308.592H138.933Z" fill="white"/>
<path d="M172.056 354.026C171.832 354.065 171.609 354.104 171.383 354.149C168.377 354.696 165.407 355.603 162.501 356.862C162.275 356.954 162.047 357.052 161.824 357.154C154.844 360.296 148.32 365.328 142.582 371.992C140.301 374.647 138.159 377.555 136.176 380.69C133.438 385.021 130.702 390.038 127.257 392.7C126.9 392.983 126.531 393.234 126.153 393.45L107.6 379.887C107.569 379.825 107.535 379.769 107.503 379.706L106.745 379.215C106.84 379.043 106.94 378.867 107.035 378.695C107.09 378.594 107.148 378.497 107.203 378.397C107.241 378.331 107.279 378.265 107.31 378.203C107.323 378.181 107.335 378.159 107.346 378.143C107.377 378.08 107.411 378.027 107.44 377.971C108.001 376.986 108.568 376.006 109.14 375.03C109.142 375.024 109.142 375.024 109.148 375.021C113.52 367.601 118.35 360.655 123.739 355.014C123.901 354.845 124.065 354.669 124.235 354.505C126.674 351.983 129.248 349.759 131.931 347.856C133.403 346.821 134.909 345.897 136.444 345.088C140.413 343.007 144.578 341.863 148.787 341.696C157.179 341.365 165.548 345.007 171.598 353.379C171.753 353.594 171.903 353.805 172.056 354.026Z" fill="#E6E6E6"/>
<path d="M171.898 354.343C161.752 350.302 151.003 351.091 141.178 356.598C139.049 357.728 137.053 359.347 135.265 361.396C133.567 363.475 132.276 366.189 131.526 369.255C130.789 372.094 130.257 375.123 129.065 377.647C128.442 378.926 127.644 379.995 126.722 380.785C125.8 381.575 124.776 382.068 123.716 382.232C121.083 382.741 118.482 381.821 115.961 380.791C113.161 379.646 110.265 378.392 107.341 379.194C106.987 379.291 106.906 378.473 107.259 378.376C112.347 376.981 117.034 381.481 122.067 381.55C124.415 381.582 126.784 380.568 128.302 377.774C129.63 375.332 130.18 372.208 130.91 369.325C131.611 366.318 132.8 363.61 134.372 361.439C136.084 359.262 138.034 357.532 140.139 356.323C144.848 353.488 149.829 351.766 154.899 351.219C160.684 350.548 166.504 351.345 172.107 353.576C172.453 353.714 172.242 354.481 171.898 354.343Z" fill="white"/>
<path d="M144.271 354.55C143.87 351.987 144.098 349.297 144.915 346.959C145.731 344.622 147.083 342.79 148.729 341.791C149.062 341.59 149.289 342.347 148.955 342.548C147.421 343.474 146.162 345.181 145.405 347.36C144.647 349.538 144.442 352.046 144.825 354.429C144.907 354.947 144.354 355.065 144.271 354.55H144.271Z" fill="white"/>
<path d="M131.772 367.744C134.84 370.632 138.531 371.704 142.11 370.747C142.464 370.652 142.546 371.47 142.192 371.565C138.466 372.551 134.627 371.424 131.439 368.408C131.135 368.12 131.47 367.457 131.772 367.744V367.744Z" fill="white"/>
<path d="M160.443 351.586C160.458 352.625 160.648 353.643 160.995 354.547C161.342 355.451 161.836 356.214 162.432 356.766C162.738 357.048 162.402 357.711 162.098 357.431C161.442 356.816 160.898 355.972 160.513 354.975C160.128 353.977 159.914 352.855 159.89 351.707C159.881 351.599 159.901 351.49 159.945 351.403C159.989 351.316 160.053 351.256 160.125 351.237C160.199 351.222 160.273 351.25 160.333 351.315C160.392 351.38 160.432 351.478 160.443 351.586V351.586Z" fill="white"/>
<path d="M166.857 207.277C167.32 206.595 167.677 205.771 167.902 204.863C168.127 203.955 168.215 202.985 168.159 202.022C168.103 201.058 167.904 200.124 167.578 199.286C167.252 198.448 166.805 197.726 166.269 197.171L173.572 144.912L165.693 148.587L159.818 199.144C159.247 200.536 159.041 202.19 159.24 203.791C159.438 205.393 160.027 206.831 160.894 207.834C161.762 208.836 162.848 209.333 163.947 209.231C165.046 209.128 166.081 208.433 166.857 207.277Z" fill="#FFB6B6"/>
<path d="M183.736 67.5855L178.855 62.1381C178.855 62.1381 174.55 61.6873 173.788 73.1678C173.025 84.6483 168.251 128.71 168.251 128.71L160.783 179.856L171.121 183.211L179.119 128.016L187.126 89.9367L183.736 67.5855Z" fill="#E6E6E6"/>
<path d="M180.017 162.223L156.607 135.307C156.243 134.887 156.005 134.27 155.948 133.591C155.891 132.913 156.018 132.229 156.301 131.689L172.229 101.398C172.513 100.859 172.93 100.508 173.389 100.423C173.848 100.338 174.311 100.526 174.676 100.945L198.086 127.861C198.451 128.281 198.688 128.898 198.745 129.577C198.802 130.255 198.676 130.939 198.392 131.479L182.464 161.77C182.18 162.309 181.763 162.66 181.304 162.745C180.845 162.83 180.383 162.642 180.017 162.223Z" fill="#3F3D56"/>
<path d="M179.889 159.438L158.464 134.805C158.141 134.432 157.93 133.884 157.879 133.282C157.828 132.68 157.941 132.072 158.192 131.593L172.632 104.133C172.884 103.654 173.255 103.343 173.662 103.267C174.069 103.192 174.48 103.358 174.805 103.731L196.229 128.363C196.553 128.736 196.763 129.284 196.814 129.886C196.865 130.489 196.752 131.096 196.501 131.576L182.061 159.036C181.809 159.515 181.438 159.826 181.031 159.901C180.624 159.977 180.213 159.81 179.889 159.438Z" fill="white"/>
<path d="M161.273 134.106C161.192 134.013 161.14 133.876 161.127 133.726C161.114 133.575 161.142 133.423 161.205 133.303L168.49 119.45C168.553 119.331 168.645 119.253 168.747 119.234C168.798 119.225 168.849 119.23 168.898 119.25C168.947 119.27 168.993 119.304 169.033 119.35C169.073 119.396 169.106 119.453 169.132 119.519C169.157 119.584 169.173 119.656 169.179 119.731C169.186 119.805 169.182 119.881 169.168 119.953C169.155 120.026 169.132 120.094 169.101 120.153L161.816 134.006C161.753 134.126 161.661 134.203 161.559 134.222C161.457 134.241 161.354 134.199 161.273 134.106Z" fill="#E4E4E4"/>
<path d="M162.48 135.495C162.399 135.401 162.347 135.264 162.334 135.114C162.321 134.963 162.349 134.811 162.412 134.691L169.697 120.839C169.76 120.719 169.852 120.641 169.954 120.622C170.056 120.603 170.159 120.645 170.24 120.738C170.321 120.831 170.374 120.968 170.386 121.119C170.399 121.27 170.371 121.421 170.308 121.541L163.023 135.394C162.96 135.514 162.868 135.592 162.766 135.61C162.664 135.629 162.561 135.588 162.48 135.495Z" fill="#E4E4E4"/>
<path d="M167.814 129.035C167.733 128.941 167.681 128.804 167.668 128.654C167.655 128.503 167.683 128.351 167.746 128.232L170.904 122.227C170.935 122.167 170.974 122.117 171.018 122.08C171.062 122.043 171.111 122.019 171.161 122.009C171.212 122 171.263 122.005 171.312 122.025C171.361 122.045 171.407 122.079 171.447 122.125C171.488 122.172 171.521 122.229 171.546 122.294C171.572 122.36 171.588 122.432 171.594 122.507C171.6 122.581 171.596 122.657 171.583 122.73C171.569 122.802 171.546 122.87 171.515 122.929L168.357 128.934C168.294 129.054 168.202 129.132 168.1 129.15C167.998 129.169 167.895 129.128 167.814 129.035Z" fill="#E4E4E4"/>
<path d="M169.442 140.819C169.361 140.725 169.309 140.588 169.296 140.438C169.283 140.287 169.311 140.135 169.374 140.016L180.874 118.146C180.905 118.087 180.944 118.037 180.988 118C181.032 117.963 181.081 117.939 181.131 117.93C181.182 117.92 181.233 117.926 181.282 117.946C181.331 117.966 181.377 118 181.417 118.046C181.457 118.092 181.491 118.149 181.516 118.215C181.541 118.28 181.557 118.352 181.564 118.426C181.57 118.501 181.566 118.577 181.553 118.649C181.539 118.722 181.516 118.79 181.485 118.849L169.985 140.718C169.922 140.838 169.83 140.916 169.728 140.934C169.626 140.953 169.523 140.912 169.442 140.819Z" fill="#E4E4E4"/>
<path d="M170.65 142.207C170.569 142.114 170.517 141.977 170.504 141.826C170.491 141.676 170.519 141.524 170.582 141.404L182.082 119.534C182.113 119.475 182.152 119.425 182.196 119.388C182.24 119.351 182.289 119.327 182.339 119.318C182.39 119.309 182.441 119.314 182.49 119.334C182.539 119.354 182.585 119.388 182.625 119.434C182.665 119.48 182.699 119.537 182.724 119.603C182.749 119.668 182.765 119.74 182.772 119.815C182.778 119.889 182.774 119.965 182.761 120.037C182.747 120.11 182.724 120.178 182.693 120.237L171.193 142.106C171.13 142.226 171.038 142.304 170.936 142.323C170.834 142.342 170.731 142.3 170.65 142.207Z" fill="#E4E4E4"/>
<path d="M173.39 145.358C173.31 145.264 173.257 145.127 173.244 144.977C173.231 144.826 173.26 144.675 173.323 144.555L184.822 122.685C184.853 122.626 184.892 122.576 184.936 122.539C184.981 122.502 185.029 122.478 185.08 122.469C185.13 122.459 185.181 122.465 185.23 122.485C185.279 122.505 185.325 122.539 185.365 122.585C185.405 122.631 185.439 122.688 185.464 122.754C185.489 122.819 185.505 122.891 185.512 122.966C185.518 123.04 185.514 123.116 185.501 123.188C185.487 123.261 185.464 123.329 185.433 123.388L173.934 145.257C173.871 145.377 173.778 145.455 173.676 145.474C173.574 145.492 173.472 145.451 173.39 145.358Z" fill="#E4E4E4"/>
<path d="M174.598 146.746C174.517 146.653 174.464 146.516 174.451 146.365C174.439 146.215 174.467 146.063 174.53 145.943L186.029 124.074C186.06 124.014 186.099 123.965 186.143 123.927C186.188 123.89 186.236 123.866 186.287 123.857C186.337 123.848 186.388 123.853 186.437 123.873C186.486 123.893 186.532 123.927 186.572 123.973C186.612 124.019 186.646 124.077 186.671 124.142C186.696 124.207 186.713 124.279 186.719 124.354C186.725 124.428 186.721 124.504 186.708 124.577C186.695 124.649 186.672 124.717 186.64 124.776L175.141 146.645C175.078 146.765 174.985 146.843 174.883 146.862C174.781 146.881 174.679 146.839 174.598 146.746Z" fill="#E4E4E4"/>
<path d="M177.338 149.897C177.257 149.804 177.204 149.667 177.191 149.516C177.179 149.365 177.207 149.214 177.27 149.094L188.769 127.224C188.801 127.165 188.839 127.115 188.884 127.078C188.928 127.041 188.977 127.017 189.027 127.008C189.077 126.999 189.129 127.004 189.178 127.024C189.227 127.044 189.272 127.078 189.313 127.124C189.353 127.17 189.386 127.227 189.411 127.293C189.437 127.358 189.453 127.43 189.459 127.505C189.465 127.579 189.462 127.655 189.448 127.727C189.435 127.8 189.412 127.868 189.381 127.927L177.881 149.796C177.818 149.916 177.725 149.994 177.623 150.013C177.522 150.031 177.419 149.99 177.338 149.897Z" fill="#E4E4E4"/>
<path d="M178.546 151.285C178.465 151.192 178.412 151.055 178.399 150.904C178.387 150.754 178.415 150.602 178.478 150.482L189.977 128.613C190.041 128.493 190.133 128.416 190.235 128.397C190.336 128.379 190.439 128.421 190.52 128.514C190.601 128.607 190.653 128.743 190.666 128.893C190.679 129.044 190.651 129.195 190.589 129.315L179.089 151.185C179.026 151.304 178.933 151.382 178.831 151.401C178.73 151.42 178.627 151.378 178.546 151.285Z" fill="#E4E4E4"/>
<path d="M159.326 176.683C159.414 176.683 159.485 176.578 159.485 176.448C159.485 176.318 159.414 176.213 159.326 176.213C159.238 176.213 159.167 176.318 159.167 176.448C159.167 176.578 159.238 176.683 159.326 176.683Z" fill="white"/>
<path d="M182.481 14.7726C181.922 19.2131 181.005 23.5387 179.751 27.6569C172.567 50.1291 193.025 42.8043 200.336 42.8043C208.33 42.8043 215.978 49.0199 214.81 21.4022C214.311 9.60512 208.33 0 200.336 0C193.509 0 183.909 4.48761 182.481 14.7726Z" fill="#2F2E41"/>
<path d="M207.788 344.358H200.977L197.736 305.514H207.788V344.358Z" fill="#FFB6B6"/>
<path d="M211.382 361.808H206.498L205.626 354.989L203.393 361.808H190.439C189.819 361.808 189.214 361.514 188.714 360.97C188.214 360.426 187.844 359.66 187.659 358.783C187.474 357.907 187.484 356.966 187.687 356.098C187.889 355.23 188.274 354.48 188.785 353.959L199.129 343.394V336.501L210.01 337.461L211.382 361.808Z" fill="#2F2E41"/>
<path d="M248.249 331.649L242.784 337.659L224.508 309.348L232.574 300.479L248.249 331.649Z" fill="#FFB6B6"/>
<path d="M258.175 342.48L254.255 346.789L250.804 342.087L251.764 349.528L241.369 360.958C240.871 361.506 240.267 361.804 239.647 361.809C239.026 361.814 238.42 361.525 237.918 360.985C237.416 360.444 237.044 359.681 236.856 358.805C236.668 357.93 236.675 356.989 236.874 356.12L240.912 338.515L238.13 332.983L247.249 324.153L258.175 342.48Z" fill="#2F2E41"/>
<path d="M185.482 165.585L217.812 158.139L211.383 129.539H185.482V165.585Z" fill="#FFB6B6"/>
<path d="M215.717 143.943C215.717 143.943 228.639 160.452 222.677 207.512L215.398 253.624L235.229 304.534L225.145 312.667L200.707 262.442L189.525 223.654L183.609 155.674L215.717 143.943Z" fill="#2F2E41"/>
<path d="M195.688 234.708L194.911 252.507L197.186 305.212L208.482 310.963L210.621 256.961L195.688 234.708Z" fill="#2F2E41"/>
<path d="M192.215 48.728L204.712 49.449L209.693 61.674L221.056 64.9543L214.273 115.7L215.52 144.584L204.205 144.482C196.051 144.408 188.165 148.789 182.061 156.784L182.399 119.29L177.532 91.3015L178.626 61.9538L187.767 60.2641L192.215 48.728Z" fill="#E6E6E6"/>
<path d="M199.138 42.799C205.634 42.799 210.9 35.0125 210.9 25.4073C210.9 15.8021 205.634 8.01562 199.138 8.01562C192.643 8.01562 187.377 15.8021 187.377 25.4073C187.377 35.0125 192.643 42.799 199.138 42.799Z" fill="#FFB6B6"/>
<path d="M191.152 7.6788C193.213 5.8209 195.573 4.81587 197.987 4.76882C200.4 4.72177 202.778 5.63442 204.872 7.41134C206.965 9.18825 208.697 11.7642 209.887 14.8698C211.076 17.9753 211.68 21.4965 211.634 25.0651C205.641 27.2901 199.345 28.9928 192.954 25.5973L191.445 20.1351L190.555 25.6013C188.609 26.7777 186.657 27.773 184.706 25.59C184.626 22.0314 185.179 18.5043 186.311 15.3612C187.442 12.218 189.111 9.56896 191.152 7.6788Z" fill="#2F2E41"/>
<path d="M218.88 179.647L220.466 200.924C220.576 201.455 220.799 201.919 221.101 202.249C221.403 202.579 221.769 202.757 222.144 202.757H229.453C229.829 202.757 230.194 202.579 230.497 202.249C230.799 201.919 231.021 201.455 231.132 200.924L232.445 184.616C232.824 184.891 233.242 185.029 233.664 185.019C234.086 185.008 234.5 184.85 234.873 184.556C235.246 184.263 235.566 183.843 235.807 183.331C236.049 182.819 236.204 182.229 236.262 181.611C236.319 180.992 236.276 180.362 236.137 179.773C235.998 179.184 235.766 178.652 235.46 178.221C235.155 177.79 234.784 177.473 234.38 177.295C233.975 177.117 233.548 177.083 233.133 177.197C232.969 176.911 232.765 176.681 232.535 176.524C232.304 176.366 232.054 176.285 231.8 176.286H220.559C220.284 176.286 220.013 176.382 219.768 176.565C219.523 176.748 219.31 177.013 219.146 177.34C218.983 177.667 218.874 178.046 218.828 178.447C218.782 178.848 218.8 179.259 218.88 179.647ZM232.674 183.514L233.479 179.647C233.572 179.201 233.581 178.726 233.505 178.273C233.54 178.27 233.572 178.257 233.607 178.257C234.112 178.257 234.596 178.554 234.954 179.082C235.311 179.61 235.511 180.327 235.511 181.073C235.511 181.82 235.311 182.537 234.954 183.065C234.596 183.593 234.112 183.89 233.607 183.89C233.279 183.886 232.958 183.757 232.674 183.514Z" fill="#6C63FF"/>
<path d="M229.901 202.772C229.44 202.086 229.086 201.259 228.864 200.35C228.642 199.44 228.558 198.469 228.617 197.506C228.677 196.543 228.878 195.611 229.207 194.775C229.537 193.94 229.986 193.221 230.523 192.67L223.4 140.356L231.266 144.091L236.968 194.691C237.534 196.088 237.734 197.743 237.53 199.343C237.326 200.943 236.733 202.377 235.861 203.373C234.99 204.369 233.903 204.858 232.804 204.747C231.706 204.636 230.673 203.933 229.901 202.772Z" fill="#FFB6B6"/>
<path d="M216.176 70.4015L221.056 64.9541C221.056 64.9541 225.361 64.5032 226.124 75.9837C226.886 87.4642 231.66 131.526 231.66 131.526L239.128 182.672L228.791 186.027L220.792 130.832L212.785 92.7526L216.176 70.4015Z" fill="#E6E6E6"/>
<path d="M174.056 118.023C175.581 118.023 176.818 116.194 176.818 113.938C176.818 111.682 175.581 109.853 174.056 109.853C172.53 109.853 171.293 111.682 171.293 113.938C171.293 116.194 172.53 118.023 174.056 118.023Z" fill="#6C63FF"/>
<path d="M85.9609 391.748L91.7182 391.747L94.4573 358.911L85.96 358.911L85.9609 391.748Z" fill="#FFB6B6"/>
<path d="M84.4922 388.968L86.1127 388.968L92.4394 385.164L95.8304 388.968H95.8308C97.7471 388.968 99.5849 390.093 100.94 392.097C102.295 394.101 103.056 396.818 103.056 399.652V399.999L84.4925 400L84.4922 388.968Z" fill="#2F2E41"/>
<path d="M108.271 386.383L113.888 388.258L121.451 357.12L113.162 354.353L108.271 386.383Z" fill="#FFB6B6"/>
<path d="M107.253 383.193L108.834 383.721L115.572 382.071L118.313 386.886L118.314 386.886C120.183 387.51 121.808 389.207 122.831 391.603C123.854 393.999 124.192 396.897 123.77 399.661L123.718 400L105.61 393.954L107.253 383.193Z" fill="#2F2E41"/>
<path d="M75.4209 222.84L80.6271 309.091C80.6271 309.091 78.6764 360.872 84.9709 379.094H94.0997L98.6195 304.362L99.1871 254.202L118.758 296.52L106.293 377.872L117.528 379.357L137.756 291.072L115.533 208.192L75.4209 222.84Z" fill="#2F2E41"/>
<path d="M80.8737 85.4869C88.2889 85.4869 94.3 76.5981 94.3 65.6333C94.3 54.6685 88.2889 45.7798 80.8737 45.7798C73.4585 45.7798 67.4473 54.6685 67.4473 65.6333C67.4473 76.5981 73.4585 85.4869 80.8737 85.4869Z" fill="#FFB8B8"/>
<path d="M104.476 104.406L93.4611 97.4178L88.099 89.0078L74.7037 92.2023L71.1496 101.213L59.6445 117.032L73.1241 207.156L72.716 226.84C72.716 226.84 81.3433 232.583 118.758 219.36C119.207 219.201 118.268 218.507 118.268 218.507L104.476 104.406Z" fill="#3F3D56"/>
<path d="M66.9118 76.8983C66.8182 76.7095 66.7256 76.5191 66.6338 76.3271C66.5969 76.4424 66.5676 76.5615 66.5254 76.6741L66.9118 76.8983Z" fill="#2F2E41"/>
<path d="M94.2291 51.111C93.3316 48.22 91.7314 45.9341 89.7465 44.7075C87.7791 43.5341 85.5804 43.537 83.6144 44.7155C81.8394 43.0572 79.8672 41.7425 77.7902 41.5797C75.7132 41.4169 73.5172 42.5563 72.2372 45.0644C71.9514 45.7265 71.6268 46.3501 71.2671 46.9281C70.2382 48.337 68.6746 48.1338 67.3071 47.8457C67.9204 48.6231 68.534 49.4004 69.1477 50.1778C68.4052 50.4646 67.6626 50.7514 66.92 51.0382C67.7865 51.8153 68.653 52.5924 69.5194 53.3695C67.0039 55.602 65.8607 60.4748 66.1626 64.9004C66.4484 69.0903 67.8164 72.9217 69.4517 76.3272C70.1041 74.2916 69.9635 71.8558 69.9527 69.5631C69.9415 67.1406 70.2313 64.3897 71.5441 63.0359C72.4296 62.1226 73.5683 62.0818 74.6362 62.0905C80.0226 62.1342 85.403 62.6309 90.7513 63.5781C91.4771 63.6246 92.1847 63.9281 92.8146 64.463C93.9973 65.6562 94.2277 68.1184 94.3465 70.2785C94.9714 66.7118 95.2772 63.0393 95.2561 59.355C95.3087 56.5309 94.9588 53.722 94.2291 51.111Z" fill="#2F2E41"/>
<path d="M98.4096 283.303C110.081 283.303 119.542 269.313 119.542 252.055C119.542 234.797 110.081 220.807 98.4096 220.807C86.7386 220.807 77.2773 234.797 77.2773 252.055C77.2773 269.313 86.7386 283.303 98.4096 283.303Z" fill="white"/>
<path d="M98.4095 220.112C97.3232 220.112 96.2385 220.233 95.1644 220.473C94.615 220.591 94.0798 220.744 93.549 220.931C89.6505 222.26 86.0783 225.164 83.231 229.32C80.3837 233.476 78.3733 238.72 77.4241 244.467C76.4749 250.214 76.6242 256.238 77.8554 261.867C79.0865 267.496 81.3511 272.508 84.3965 276.345C84.7581 276.796 85.1243 277.233 85.5047 277.65C88.2463 280.673 91.4341 282.689 94.8057 283.534C98.1774 284.379 101.637 284.028 104.899 282.51C108.16 280.991 111.132 278.349 113.568 274.801C116.005 271.253 117.837 266.9 118.913 262.1C119.99 257.301 120.28 252.192 119.76 247.194C119.241 242.196 117.926 237.452 115.924 233.352C113.922 229.252 111.29 225.914 108.245 223.612C105.2 221.31 101.829 220.111 98.4095 220.112V220.112ZM98.4095 282.608C94.0159 282.615 89.7366 280.539 86.1997 276.685C85.8147 276.268 85.4437 275.838 85.0821 275.379C82.1151 271.678 79.9136 266.816 78.7301 261.349C77.5465 255.883 77.429 250.033 78.3909 244.473C79.3527 238.912 81.3551 233.864 84.1682 229.909C86.9814 225.954 90.4915 223.252 94.2958 222.112C94.8216 221.952 95.3476 221.827 95.8831 221.73C96.7212 221.576 97.5649 221.5 98.4095 221.501C103.89 221.501 109.145 224.72 113.02 230.45C116.895 236.18 119.072 243.951 119.072 252.054C119.072 260.158 116.895 267.929 113.02 273.659C109.145 279.389 103.89 282.608 98.4095 282.608Z" fill="#3F3D56"/>
<path d="M88.0442 245.805H108.774C109.534 245.805 110.149 244.894 110.149 243.771V243.672C110.149 242.549 109.534 241.638 108.774 241.638H88.0442C87.2848 241.638 86.6692 242.549 86.6692 243.672V243.771C86.6692 244.894 87.2848 245.805 88.0442 245.805Z" fill="#6C63FF"/>
<path d="M88.0442 254.138H108.774C109.534 254.138 110.149 253.227 110.149 252.104V252.005C110.149 250.882 109.534 249.971 108.774 249.971H88.0442C87.2848 249.971 86.6692 250.882 86.6692 252.005V252.104C86.6692 253.227 87.2848 254.138 88.0442 254.138Z" fill="#6C63FF"/>
<path d="M88.0442 262.471H108.774C109.534 262.471 110.149 261.56 110.149 260.437V260.338C110.149 259.215 109.534 258.304 108.774 258.304H88.0442C87.2848 258.304 86.6692 259.215 86.6692 260.338V260.437C86.6692 261.56 87.2848 262.471 88.0442 262.471Z" fill="#6C63FF"/>
<path d="M334.833 390.688L328.796 390.687L325.924 356.256L334.834 356.257L334.833 390.688Z" fill="#9E616A"/>
<path d="M306.273 390.688L300.236 390.687L297.364 356.256L306.274 356.257L306.273 390.688Z" fill="#9E616A"/>
<path d="M306.486 400L287.922 399.999V399.652C287.922 396.818 288.683 394.101 290.038 392.097C291.393 390.093 293.231 388.968 295.147 388.968H295.148L298.539 385.164L304.866 388.968L306.486 388.968L306.486 400Z" fill="#2F2E41"/>
<path d="M335.82 400L317.256 399.999V399.652C317.256 396.818 318.017 394.101 319.372 392.097C320.727 390.093 322.565 388.968 324.481 388.968H324.482L327.873 385.164L334.2 388.968L335.82 388.968L335.82 400Z" fill="#2F2E41"/>
<path d="M300.351 186.911L291.176 269.519L293.673 281.829L290.396 290.547L295.208 367.114L293.255 373.472L298.712 378.448H309.816L310.405 309.132L313.148 298.955V293.346L318.732 251.079L319.76 310.272L321.384 320.465L320.02 327.722L321.802 332.807L326.537 379.959H338.989L338.026 368.989C339.11 368.177 339.982 366.855 340.503 365.231C341.024 363.607 341.165 361.773 340.904 360.017L340.19 355.209L341.815 340.992L344.774 261.678L343.94 197.682L329.374 181.212L300.351 186.911Z" fill="#2F2E41"/>
<path d="M321.385 80.8327C327.773 80.8327 332.953 73.1741 332.953 63.7269C332.953 54.2796 327.773 46.6211 321.385 46.6211C314.996 46.6211 309.816 54.2796 309.816 63.7269C309.816 73.1741 314.996 80.8327 321.385 80.8327Z" fill="#9E616A"/>
<path d="M296.109 219.692C296.613 218.923 296.996 218 297.232 216.988C297.468 215.976 297.551 214.9 297.476 213.836C297.4 212.771 297.168 211.744 296.795 210.827C296.422 209.909 295.917 209.124 295.316 208.526L299.815 183.372L291.148 187.682L288.205 210.909C287.593 212.467 287.388 214.303 287.631 216.07C287.873 217.836 288.545 219.409 289.519 220.492C290.493 221.575 291.702 222.091 292.917 221.944C294.132 221.796 295.267 220.995 296.109 219.692H296.109Z" fill="#9E616A"/>
<path d="M300.843 98.9195L298.983 98.3486L297.396 99.6476C297.396 99.6476 292.964 108.385 292.964 116.394C292.964 124.404 287.548 201.585 287.548 201.585L297.396 208.138L305.275 147.704L300.843 98.9195Z" fill="#E6E6E6"/>
<path d="M331.514 51.1853C331.514 51.1853 334.54 42.6324 327.884 41.8549C327.884 41.8549 322.209 34.2431 316.425 40.4634C316.425 40.4634 313.27 40.4634 311.545 45.7426C311.545 45.7426 309.063 44.351 308.518 48.0752C308.518 48.0752 306.702 55.8506 308.518 62.8484C310.334 69.8462 310.937 70.6237 310.937 70.6237C310.937 70.6237 307.953 55.9524 315.215 55.1749C322.478 54.3974 330.604 47.6864 331.209 56.2393C331.815 64.7922 332.725 66.8996 332.725 66.8996C332.725 66.8996 338.474 54.6843 331.514 51.1853Z" fill="#2F2E41"/>
<path d="M373.773 290.548C372.9 290.549 372.057 290.074 371.406 289.213L336.397 243.131C335.692 242.2 335.265 240.894 335.21 239.498C335.155 238.102 335.477 236.732 336.105 235.686L358.532 198.431C359.161 197.388 360.045 196.757 360.989 196.675C361.933 196.594 362.86 197.07 363.567 197.999L398.576 244.081C399.282 245.011 399.71 246.317 399.765 247.713C399.82 249.109 399.497 250.48 398.869 251.525L376.441 288.78C376.131 289.299 375.754 289.721 375.332 290.023C374.91 290.325 374.452 290.5 373.984 290.538C373.914 290.545 373.843 290.548 373.773 290.548Z" fill="white"/>
<path d="M373.772 290.887C372.843 290.889 371.946 290.383 371.254 289.466L336.245 243.385C335.494 242.394 335.039 241.003 334.981 239.518C334.923 238.032 335.265 236.573 335.933 235.461L358.36 198.206C359.03 197.096 359.971 196.424 360.975 196.338C361.98 196.251 362.966 196.757 363.719 197.745L398.728 243.827C399.48 244.817 399.935 246.208 399.993 247.694C400.052 249.18 399.709 250.639 399.039 251.751L376.612 289.005C376.282 289.558 375.88 290.007 375.432 290.329C374.983 290.65 374.495 290.836 373.997 290.877C373.922 290.883 373.847 290.887 373.772 290.887ZM361.197 197.683C360.79 197.681 360.388 197.808 360.018 198.053C359.647 198.299 359.315 198.658 359.045 199.107L336.618 236.362C336.111 237.206 335.851 238.313 335.896 239.439C335.94 240.566 336.285 241.621 336.854 242.372L371.863 288.453C372.146 288.825 372.475 289.111 372.832 289.295C373.189 289.478 373.567 289.556 373.944 289.524C374.322 289.491 374.691 289.349 375.031 289.106C375.372 288.862 375.676 288.522 375.927 288.104L398.355 250.849C398.862 250.006 399.122 248.899 399.078 247.772C399.034 246.645 398.689 245.591 398.119 244.84L363.109 198.758C362.583 198.064 361.902 197.681 361.197 197.683H361.197Z" fill="#3F3D56"/>
<path d="M386.467 255.265C386.089 255.266 385.724 255.061 385.442 254.689L357.961 218.516C357.809 218.317 357.685 218.076 357.596 217.806C357.507 217.536 357.455 217.242 357.443 216.943C357.431 216.643 357.459 216.343 357.526 216.059C357.592 215.775 357.696 215.514 357.831 215.29C357.966 215.065 358.13 214.883 358.312 214.752C358.495 214.621 358.694 214.545 358.897 214.529C359.099 214.512 359.302 214.554 359.494 214.653C359.686 214.753 359.862 214.907 360.013 215.107L387.494 251.28C387.728 251.588 387.893 251.993 387.967 252.442C388.042 252.892 388.022 253.364 387.91 253.796C387.799 254.229 387.601 254.601 387.344 254.863C387.086 255.125 386.78 255.266 386.467 255.265Z" fill="#6C63FF"/>
<path d="M381.226 263.972C380.848 263.973 380.483 263.768 380.201 263.396L352.72 227.223C352.569 227.024 352.445 226.782 352.357 226.513C352.269 226.243 352.217 225.95 352.206 225.651C352.194 225.352 352.222 225.052 352.289 224.769C352.355 224.486 352.459 224.225 352.594 224.002C352.728 223.778 352.892 223.596 353.074 223.465C353.256 223.335 353.454 223.258 353.657 223.241C353.859 223.224 354.062 223.266 354.253 223.364C354.444 223.462 354.621 223.616 354.772 223.815L382.253 259.988C382.487 260.295 382.652 260.7 382.726 261.15C382.8 261.599 382.781 262.071 382.669 262.504C382.558 262.936 382.36 263.308 382.102 263.57C381.845 263.832 381.539 263.973 381.226 263.972H381.226Z" fill="#6C63FF"/>
<path d="M375.985 272.68C375.606 272.681 375.241 272.475 374.959 272.103L347.478 235.931C347.327 235.732 347.203 235.49 347.115 235.22C347.026 234.951 346.974 234.658 346.963 234.358C346.951 234.059 346.979 233.759 347.045 233.476C347.112 233.192 347.216 232.931 347.351 232.707C347.485 232.483 347.649 232.301 347.831 232.17C348.014 232.04 348.212 231.964 348.415 231.947C348.617 231.929 348.82 231.971 349.011 232.07C349.203 232.169 349.379 232.322 349.531 232.522L377.011 268.695C377.245 269.002 377.41 269.408 377.484 269.857C377.559 270.306 377.539 270.779 377.428 271.211C377.316 271.643 377.119 272.015 376.861 272.278C376.603 272.54 376.298 272.68 375.985 272.68H375.985Z" fill="#6C63FF"/>
<path d="M344.558 221.177C344.205 220.242 343.996 219.205 343.943 218.137C343.891 217.069 343.998 215.998 344.257 214.998C344.515 213.998 344.918 213.094 345.438 212.349C345.958 211.605 346.583 211.038 347.267 210.689L347.297 184.669L354.922 192.132L353.724 215.696C354.045 217.435 353.923 219.287 353.382 220.902C352.84 222.517 351.917 223.782 350.787 224.457C349.658 225.133 348.399 225.172 347.251 224.567C346.103 223.963 345.145 222.757 344.558 221.177H344.558Z" fill="#9E616A"/>
<path d="M345.262 106.05L348.669 101.194L351.171 103.865C351.171 103.865 353.633 108.234 355.603 121.34C357.573 134.446 355.603 206.531 355.603 206.531L344.77 204.346L346.247 166.484L341.815 134.446L345.262 106.05Z" fill="#E6E6E6"/>
<path d="M350.293 102.379L338.816 94.2723L331.024 83.5855L316.815 83.4282L312.232 92.2391L300.131 98.3171L302.148 160.015L300.773 164.759C300.773 164.759 301.731 166.039 302.169 166.754C302.607 167.47 301.564 173.462 301.564 173.462L300.976 179.981L302.607 181.703L300.487 185.405L299.961 191.24C299.961 191.24 336.957 177.643 343.947 200.168C344.316 201.358 343.407 189.727 343.407 189.727L342.497 181.213L343.4 173.57L344.775 171.537L342.468 168.127L343.947 151.946L350.293 102.379Z" fill="#3F3D56"/>
<path d="M90.0246 239.158C90.3094 238.088 90.4322 236.94 90.3843 235.793C90.3364 234.645 90.119 233.528 89.7474 232.518C89.3758 231.509 88.8591 230.632 88.2335 229.95C87.608 229.268 86.8889 228.797 86.127 228.57L83.5775 200.888L76.1855 210.442L79.7398 235.265C79.567 237.183 79.876 239.128 80.6082 240.732C81.3405 242.336 82.4452 243.486 83.7129 243.966C84.9806 244.446 86.3233 244.222 87.4866 243.335C88.6499 242.449 89.5529 240.963 90.0246 239.158V239.158Z" fill="#FFB8B8"/>
<path d="M61.0637 116.526L59.0601 117.093L57.849 119.348C57.849 119.348 55.8897 130.712 58.1216 138.653C60.3536 146.594 76.4905 226.42 76.4905 226.42L88.0812 226.917L79.0521 162.196L61.0637 116.526Z" fill="#3F3D56"/>
<path d="M106.757 235.097C106.223 234.262 105.819 233.264 105.574 232.173C105.329 231.082 105.249 229.925 105.34 228.784C105.43 227.642 105.688 226.544 106.097 225.566C106.505 224.588 107.054 223.754 107.703 223.124L103.089 196.032L112.357 200.822L115.318 225.815C115.962 227.499 116.166 229.474 115.891 231.366C115.616 233.258 114.881 234.935 113.826 236.079C112.77 237.223 111.468 237.755 110.165 237.574C108.862 237.393 107.649 236.512 106.757 235.097Z" fill="#FFB8B8"/>
<path d="M102.708 105.341L104.71 104.763L106.402 106.187C106.402 106.187 111.086 115.651 111.017 124.25C110.948 132.849 116.103 215.816 116.103 215.816L105.474 222.668L97.5322 157.635L102.708 105.341Z" fill="#3F3D56"/>
</g>
<defs>
<clipPath id="clip0_588_143">
<rect width="400" height="400" fill="white"/>
</clipPath>
</defs>
</svg>
